<?xml version="1.0" encoding="utf-8"?>
<!-- Generator: Adobe Illustrator 21.1.0, SVG Export Plug-In . SVG Version: 6.00 Build 0)  -->
<svg version="1.0"
	 id="svg5448" xmlns:cc="http://creativecommons.org/ns#" xmlns:dc="http://purl.org/dc/elements/1.1/" xmlns:rdf="http://www.w3.org/1999/02/22-rdf-syntax-ns#" xmlns:svg="http://www.w3.org/2000/svg"
	 xmlns="http://www.w3.org/2000/svg" xmlns:xlink="http://www.w3.org/1999/xlink" x="0px" y="0px" width="512px" height="512px"
	 viewBox="0 0 512 512" enable-background="new 0 0 512 512" xml:space="preserve">
<path fill="none" d="M164.7,226.9c0,0-0.1,0-0.1,0c0,0,0,0,0,0l0.2,0.8L164.7,226.9z"/>
<path fill="none" d="M165.1,243l-0.2-10.4c-0.1,0-0.2,0-0.3-0.1C164.7,236,164.9,239.5,165.1,243z"/>
<path fill="none" d="M237.1,402.2V389c0,0,0,0,0,0L237.1,402.2L237.1,402.2z"/>
<path fill="#FFFFFF" d="M237.1,402.2v6.8c0,13.7,11.1,24.7,24.7,24.7c13.7,0,24.7-11.1,24.7-24.7v-19.6c-7.7,2.2-15.7,3.3-23.9,3.3
	c-8.8,0-17.4-1.3-25.6-3.8L237.1,402.2L237.1,402.2z"/>
<path fill="#FFFFFF" d="M261.6,438.5c-16.1,0-29.2-13.1-29.2-29.2v-4.9h-0.9h-6.6c-0.4,2.2-0.6,4.5-0.6,6.8
	c0,20.5,16.6,37.1,37.1,37.1s37.1-16.6,37.1-37.1c0-2.3-0.2-4.6-0.6-6.8h-7v4.9C290.9,425.4,277.8,438.5,261.6,438.5z"/>
<path fill="#FFFFFF" d="M329.7,404.4h-27.5c0.4,2.2,0.6,4.5,0.6,6.8c0,22.9-18.5,41.4-41.4,41.4S220,434.1,220,411.2
	c0-2.3,0.2-4.6,0.6-6.8h-18.1c-39.9,0-74.8,15.7-77.4,60l-1,16.3h283.4l-0.5-16.3C404.5,420.1,369.6,404.4,329.7,404.4z"/>
<path fill="#FFFFFF" d="M290.9,399.7h0.7l-0.6-11.5c0,0-0.1,0-0.1,0V399.7z"/>
<path fill="#3B434F" d="M412.3,462.7c-2.7-45.9-38.9-63-80.3-63h-30.8h-0.1h-4.4h-5.1h-0.7v-11.5c0,0,0.1,0,0.1,0
	c34.6-11.8,61.2-44.7,67.1-85.6c7.2-2.5,19.5-9.4,22.6-27.9l3.5-24c0,0,2.7-31.6-23.5-23.8l0.1-4.5c1.4-62-42.5-113.6-98.1-113.6
	c-55.6,0-99.5,51.6-98.1,113.6l0.1,4.6c0,0-0.1,0-0.1,0c0,0,0.1,0,0.1,0l0,0.7l-0.2-0.8c-26.4-8.1-23.7,23.7-23.7,23.7l3.5,24.1
	c3.2,19.1,16.1,26,23,28.3c5.9,39.9,31.5,72.1,65,84.5v12.2h-0.9h-5.4h-4.4h-0.1H200c-41.4,0-77.6,17.1-80.3,63l-1.4,23.5h5.5h284.5
	h5.3L412.3,462.7z M124.2,480.7l1-16.3c2.6-44.2,37.5-60,77.4-60h18.1c-0.4,2.2-0.6,4.5-0.6,6.8c0,22.9,18.5,41.4,41.4,41.4
	s41.4-18.5,41.4-41.4c0-2.3-0.2-4.6-0.6-6.8h27.5c39.9,0,74.8,15.7,77.4,60l0.5,16.3H124.2z M297.9,404.4c0.4,2.2,0.6,4.5,0.6,6.8
	c0,20.5-16.6,37.1-37.1,37.1s-37.1-16.6-37.1-37.1c0-2.3,0.2-4.6,0.6-6.8h6.6h0.9v4.9c0,16.1,13.1,29.2,29.2,29.2
	c16.1,0,29.2-13.1,29.2-29.2v-4.9H297.9z M172.5,298.5c-0.5-3.9-0.8-7.8-0.9-11.8l-1.3-58.1c0,0,0.1,0,0.1,0c0,0-0.1,0-0.1,0
	l-0.1-4.7c-1.3-59.1,40-108.3,92.3-108.3c52.4,0,93.7,49.2,92.3,108.3l-1.4,62.8c-1.3,55.7-42,99.7-90.9,99.7
	C217,386.5,178.7,348.5,172.5,298.5c0.7,0,1.8,0.1,2.8,0.2C174.5,298.6,173.6,298.6,172.5,298.5z M368,275.5c1,0,2.1-0.9,2.1-0.9
	l2.1-21c0,0-2.5-8.8-12.4-5.9c0.2-5.1,0.5-10.2,0.8-15.3c4.5-1,18.9-2.7,18.3,14.8c0,0-3,30.1-4.3,32.8c0,0-6.2,13.5-16.6,17.3
	c0.8-14.4,1.2-29,1.7-43.5c3.2-0.8,7.9-1.4,7.8,1.7c-0.2,4.5-1.4,18.9-1.4,18.9S367,275.5,368,275.5z M164.8,232.6l0.2,10.4
	c0.1,1.6,0.1,3.2,0.2,4.8c-9.9-2.9-12.4,5.9-12.4,5.9l2.1,21c0,0,1.1,0.9,2.1,0.9c1,0,2.1-0.9,2.1-0.9s-1.2-14.4-1.4-18.9
	c-0.1-3.2,4.6-2.5,7.8-1.7c0.5,14.6,0.8,29.1,1.7,43.5c-10.4-3.8-16.5-17.3-16.5-17.3c-1.3-2.8-4.3-32.8-4.3-32.8
	c-0.6-17.5,13.7-15.8,18.2-14.8C164.6,232.5,164.7,232.6,164.8,232.6z M237.1,389c8.2,2.5,16.8,3.8,25.6,3.8
	c8.2,0,16.2-1.2,23.9-3.3v19.6c0,13.7-11.1,24.7-24.7,24.7c-13.7,0-24.7-11.1-24.7-24.7v-6.8L237.1,389
	C237.1,389,237.1,389,237.1,389z"/>
<path fill="#FFFFFF" d="M313,241.2c-8.7,0-16,5.2-16,11.3s7.3,11.3,16,11.3s16-5.2,16-11.3S321.7,241.2,313,241.2z M311.9,257
	c-3.2,0-5.8-2.6-5.8-5.8s2.6-5.8,5.8-5.8s5.8,2.6,5.8,5.8S315.1,257,311.9,257z"/>
<path fill="#FFFFFF" d="M214.9,241.2c-8.7,0-16,5.2-16,11.3s7.3,11.3,16,11.3s16-5.2,16-11.3S223.6,241.2,214.9,241.2z M216.9,257
	c-3.2,0-5.8-2.6-5.8-5.8s2.6-5.8,5.8-5.8s5.8,2.6,5.8,5.8S220.1,257,216.9,257z"/>
<path fill="#FFFFFF" d="M172.5,298.5c6.3,50,44.6,87.9,90,87.9c49,0,89.6-44,90.9-99.7l1.4-62.8c1.3-59.1-40-108.3-92.3-108.3
	c-52.4,0-93.7,49.2-92.3,108.3l0.1,4.7l1.3,58.1C171.7,290.7,172,294.6,172.5,298.5 M195.9,252.5c0-8.5,8.3-15.2,19-15.2
	s19,6.7,19,15.2s-8.3,13.9-19,13.9S195.9,261,195.9,252.5z M276.3,353.6H249v-4.3h27.3V353.6z M308.8,326
	c-7.8,6.7-25.3,13.1-45.7,13.1s-37.9-6.4-45.7-13.1c0,0-0.8-2.2,0.4-3.3c1.2-1.2,3-0.9,3-0.9c7.7,6.7,21.9,12.3,42.2,12.3
	s34.5-5.6,42.2-12.3c0,0,1.9-0.7,2.8,0.2C310,323.7,308.8,326,308.8,326z M313,266.4c-10.7,0-19-5.4-19-13.9s8.3-15.2,19-15.2
	s19,6.7,19,15.2S323.6,266.4,313,266.4z M262.3,297.7c2.1-1.1,8.6-2.2,9.4-4.3c1-1.1,0.3-4.4,0-5.5c-0.8-3-1.2-5.4-2.3-8.1
	c-0.7-1.8-2.1-3.6-1.3-5.8c0.6-0.3,2-0.6,2.6-1.1c0.5,0,1,0,1.5,0c3.1,4.2,4.3,10.6,6,16.2c0.5,1.7,0,4.8-0.4,6
	c-1.6,4.5-6.7,4.4-10.9,6.4c-1.1,0.5-2,1.5-3.4,1.7c-0.9-0.8-2.1-1-2.6-2.3C259.6,299.3,261.1,298.3,262.3,297.7z"/>
<path fill="#3B434F" d="M305.4,321.7c-7.7,6.7-21.9,12.3-42.2,12.3s-34.5-5.6-42.2-12.3c0,0-1.9-0.3-3,0.9c-1.2,1.2-0.4,3.3-0.4,3.3
	c7.8,6.7,25.3,13.1,45.7,13.1s37.9-6.4,45.7-13.1c0,0,1.2-2.3-0.6-4.1C307.3,321,305.4,321.7,305.4,321.7z"/>
<rect x="249" y="349.3" fill="#3B434F" width="27.3" height="4.3"/>
<path fill="#FFFFFF" d="M146.4,247.3c0,0,3,30.1,4.3,32.8c0,0,6.1,13.6,16.5,17.3c-0.8-14.4-1.2-29-1.7-43.5
	c-3.2-0.8-7.9-1.4-7.8,1.7c0.2,4.5,1.4,18.9,1.4,18.9s-1.1,0.9-2.1,0.9c-1,0-2.1-0.9-2.1-0.9l-2.1-21c0,0,2.5-8.8,12.4-5.9
	c-0.1-1.6-0.1-3.2-0.2-4.8c-0.2-3.5-0.3-7-0.5-10.5C160.1,231.5,145.8,229.8,146.4,247.3z"/>
<path fill="#3B434F" d="M164.6,226.9C164.6,226.9,164.6,226.9,164.6,226.9C164.6,226.9,164.6,226.9,164.6,226.9z"/>
<path fill="#3B434F" d="M175.8,230.3"/>
<path fill="#3B434F" d="M175.3,230.2"/>
<path fill="#3B434F" d="M176.2,298.7C178,298.8,177.4,298.8,176.2,298.7L176.2,298.7z"/>
<path fill="#3B434F" d="M175.7,298.7c0.2,0,0.3,0,0.5,0C176,298.7,175.9,298.7,175.7,298.7z"/>
<path fill="#3B434F" d="M175.8,230.3C176,230.4,176,230.4,175.8,230.3L175.8,230.3z"/>
<path fill="#3B434F" d="M175.3,298.7c0.2,0,0.3,0,0.5,0C175.6,298.7,175.4,298.7,175.3,298.7z"/>
<path fill="#FFFFFF" d="M359.5,254c-0.5,14.5-0.8,29.1-1.7,43.5c10.4-3.8,16.6-17.3,16.6-17.3c1.3-2.8,4.3-32.8,4.3-32.8
	c0.6-17.5-13.8-15.8-18.3-14.8c-0.3,5.1-0.6,10.2-0.8,15.3c10-2.9,12.4,5.9,12.4,5.9l-2.1,21c0,0-1.1,0.9-2.1,0.9s-2.1-0.9-2.1-0.9
	s1.2-14.4,1.4-18.9C367.4,252.6,362.6,253.2,359.5,254z"/>
<path fill="#3B434F" d="M263.3,303.3c1.5-0.2,2.3-1.2,3.4-1.7c4.2-2,9.3-1.9,10.9-6.4c0.4-1.2,0.9-4.2,0.4-6c-1.6-5.6-2.9-12-6-16.2
	c-0.5,0-1,0-1.5,0c-0.5,0.5-1.9,0.8-2.6,1.1c-0.8,2.1,0.5,4,1.3,5.8c1.1,2.7,1.5,5.1,2.3,8.1c0.3,1.2,1,4.5,0,5.5
	c-0.8,2-7.3,3.1-9.4,4.3c-1.2,0.6-2.6,1.6-1.5,3.2C261.2,302.3,262.4,302.4,263.3,303.3z"/>
<path id="eyebrow_x5F_1" fill="#3B434F" d="M202.1,220.6c16.1-5.1,33,4.5,33,4.5l1.3-1.4l0.2-0.8l3-4.3c-45-15-56,8.8-56,8.8
	l8.8,0.2C195.5,224.3,198.8,222.1,202.1,220.6z"/>
<path id="eyebrow_x5F_2" fill="#3B434F" d="M289.2,223.7l1.3,1.4c0,0,16.9-9.6,33-4.5c3.4,1.5,6.6,3.7,9.7,7l8.8-0.2
	c0,0-11-23.8-56-8.8l3,4.3L289.2,223.7z"/>
<path fill="#3B434F" d="M233.9,252.5c0-8.5-8.3-15.2-19-15.2s-19,6.7-19,15.2s8.3,13.9,19,13.9S233.9,261,233.9,252.5z M214.9,263.8
	c-8.7,0-16-5.2-16-11.3s7.3-11.3,16-11.3s16,5.2,16,11.3S223.6,263.8,214.9,263.8z"/>
<path fill="#3B434F" d="M313,237.3c-10.7,0-19,6.7-19,15.2s8.3,13.9,19,13.9s19-5.4,19-13.9S323.6,237.3,313,237.3z M313,263.8
	c-8.7,0-16-5.2-16-11.3s7.3-11.3,16-11.3s16,5.2,16,11.3S321.7,263.8,313,263.8z"/>
<circle fill="#3B434F" cx="216.9" cy="251.2" r="5.8"/>
<circle fill="#3B434F" cx="311.9" cy="251.2" r="5.8"/>
<path id="hair" fill="#3B434F" d="M391.7,166c5.1-5.8,8.2-13.3,8.2-21.6c0-11.8-6.3-22.2-15.7-27.9c-0.4-11.9-7.2-22.1-17-27.5
	c-0.4-17.7-14.9-31.9-32.6-31.9c-3.6,0-7,0.6-10.2,1.6c-5.9-8-15.5-13.3-26.3-13.3c-6.6,0-12.8,2-17.9,5.4
	c-5.9-8.3-15.6-13.7-26.6-13.7c-13.5,0-25,8.2-30,19.8c-4.9-2.9-10.5-4.5-16.6-4.5c-13.3,0-24.8,8-29.9,19.5
	c-17.6,0.5-31.8,14.9-31.8,32.6c0,2.9,0.4,5.8,1.1,8.5c-13.7,3.9-23.8,16.5-23.8,31.4c0,9.9,4.4,18.8,11.4,24.8
	c-5.8,3.7-9.7,10.2-9.7,17.6c0,10.2,7.4,18.7,17.2,20.5c0,0.4-0.1,0.9-0.1,1.3c0,11.5,9.3,20.8,20.8,20.8c11.5,0,20.8-9.3,20.8-20.8
	c0-2.8-0.6-5.5-1.6-8c3.3-3.7,5.3-8.5,5.3-13.8c0-2.4-0.4-4.6-1.1-6.7c2.7,1.2,5.6,1.9,8.7,1.9c11.5,0,20.8-9.3,20.8-20.8
	c0-0.2,0-0.5,0-0.7c1.2-0.7,2.4-1.5,3.6-2.4c3.9,1.6,8.2,2.5,12.6,2.5c9.2,0,17.4-3.8,23.4-9.8c4.8,2.7,10.3,4.3,16.2,4.3
	c4.9,0,9.5-1.1,13.7-3c6,7.7,15.3,12.7,25.9,12.7c0.7,0,1.4,0,2.1-0.1c4.2,11,14.2,19.2,26.2,20.8c-0.2,1.2-0.4,2.5-0.4,3.8
	c0,7.5,4,14,9.9,17.7c-1,1.9-1.5,4.1-1.5,6.4c0,8,6.5,14.5,14.5,14.5c6.5,0,12-4.3,13.8-10.2c6.1-1.7,10.6-7.3,10.6-13.9
	c0-0.7-0.1-1.4-0.2-2.1c8.2-2.8,14-10.5,14-19.6C399.4,175.7,396.4,169.9,391.7,166z"/>
</svg>
