<svg xmlns="http://www.w3.org/2000/svg" width="893.93" height="857.39" viewBox="0 0 893.93 857.39">
  <title>Asset 1</title>
  <g id="Layer_2" data-name="Layer 2">
    <g id="Capa_1" data-name="Capa 1">
      <path d="M29.52,9.68H866A14.94,14.94,0,0,1,881,24.61V137.15h6a6.85,6.85,0,0,0,7-6.7V6.7a6.85,6.85,0,0,0-7-6.7H7A6.85,6.85,0,0,0,0,6.7V130.45a6.85,6.85,0,0,0,7,6.7h7.59V24.61A14.94,14.94,0,0,1,29.52,9.68Z" fill="#559264"/>
      <path d="M7,206.15a6.85,6.85,0,0,0-7,6.7V644.54a6.85,6.85,0,0,0,7,6.7h7.59V206.15Z" fill="#559264"/>
      <path d="M866,846.2H29.52a14.94,14.94,0,0,1-14.94-14.94v-111H0V850.69a6.85,6.85,0,0,0,7,6.7h880a6.85,6.85,0,0,0,7-6.7V726.94a6.85,6.85,0,0,0-7-6.7h-6v111A14.94,14.94,0,0,1,866,846.2Z" fill="#559264"/>
      <path d="M866,9.68H29.52A14.94,14.94,0,0,0,14.58,24.61V831.26A14.94,14.94,0,0,0,29.52,846.2H866A14.94,14.94,0,0,0,881,831.26V24.61A14.94,14.94,0,0,0,866,9.68Z" fill="#71c285"/>
      <path d="M854.78,41.71a8.86,8.86,0,1,1,8.83-8.83,8.74,8.74,0,0,1-8.83,8.83Z" fill="#ecf0f1"/>
      <path d="M43.48,41.34a8.86,8.86,0,0,1-6.27-15.1,9.24,9.24,0,0,1,12.53,0,8.83,8.83,0,0,1-6.27,15.1Z" fill="#ecf0f1"/>
      <path d="M42.09,830.52a8.86,8.86,0,0,1-6.27-15.1,8.23,8.23,0,0,1,2.91-1.86,8.87,8.87,0,0,1,6.71,0,9.14,9.14,0,0,1,2.92,1.86,9.29,9.29,0,0,1,2.56,6.27,8.81,8.81,0,0,1-.71,3.35A10.27,10.27,0,0,1,48.35,828,9.28,9.28,0,0,1,42.09,830.52Z" fill="#ecf0f1"/>
      <path d="M66.51,830.52a8.86,8.86,0,0,1-6.27-15.1,8.23,8.23,0,0,1,2.91-1.86,8.87,8.87,0,0,1,6.71,0,9.14,9.14,0,0,1,2.92,1.86,9.29,9.29,0,0,1,2.56,6.27,8.81,8.81,0,0,1-.71,3.35A10.27,10.27,0,0,1,72.77,828,9.28,9.28,0,0,1,66.51,830.52Z" fill="#ecf0f1"/>
      <path d="M90.93,830.52a8.86,8.86,0,0,1-6.27-15.1,8.23,8.23,0,0,1,2.91-1.86,8.87,8.87,0,0,1,6.71,0,9.14,9.14,0,0,1,2.92,1.86,9.29,9.29,0,0,1,2.56,6.27A8.81,8.81,0,0,1,99,825,10.27,10.27,0,0,1,97.19,828,9.28,9.28,0,0,1,90.93,830.52Z" fill="#ecf0f1"/>
      <g>
        <path d="M521,9.68v29A4.31,4.31,0,0,0,525.28,43H781.77V9.68Z" fill="#fad87c"/>
        <path d="M781.77,9.68V43h29a4.31,4.31,0,0,0,4.31-4.31v-29Z" fill="#febe40"/>
      </g>
      <g>
        <path d="M185,9.68v29A4.31,4.31,0,0,0,189.3,43H445.79V9.68Z" fill="#fad87c"/>
        <path d="M445.79,9.68V43h29a4.31,4.31,0,0,0,4.31-4.31v-29Z" fill="#febe40"/>
      </g>
      <g>
        <path d="M128.13,813.87a4.31,4.31,0,0,0-4.31,4.31v29h260.8V813.87Z" fill="#fad87c"/>
        <path d="M413.6,813.87h-29v33.29h33.29v-29A4.31,4.31,0,0,0,413.6,813.87Z" fill="#febe40"/>
      </g>
      <g>
        <path d="M559.92,813.87a4.31,4.31,0,0,0-4.31,4.31v29h260.8V813.87Z" fill="#fad87c"/>
        <path d="M845.4,813.87h-29v33.29h33.29v-29A4.31,4.31,0,0,0,845.4,813.87Z" fill="#febe40"/>
      </g>
      <g>
        <path d="M62.78,472.68a8.95,8.95,0,0,0,17.9,0v-17.9H62.78Z" fill="#f3cc6d"/>
        <path d="M53.83,472.68v-17.9H35.93v17.9a8.95,8.95,0,0,0,17.9,0Z" fill="#f3cc6d"/>
        <path d="M80.67,383.19a8.95,8.95,0,0,0-17.9,0v17.9h17.9Z" fill="#f3cc6d"/>
        <path d="M53.83,383.19a8.95,8.95,0,0,0-17.9,0v17.9h17.9Z" fill="#f3cc6d"/>
        <polygon points="89.62 401.09 80.67 401.09 62.78 401.09 53.83 401.09 35.93 401.09 26.98 401.09 26.98 454.78 35.93 454.78 53.83 454.78 62.78 454.78 80.67 454.78 89.62 454.78 89.62 401.09" fill="#333331"/>
      </g>
      <g>
        <path d="M133.82,472.68a8.95,8.95,0,1,0,17.9,0v-17.9h-17.9Z" fill="#f3cc6d"/>
        <path d="M124.87,472.68v-17.9H107v17.9a8.95,8.95,0,0,0,17.9,0Z" fill="#f3cc6d"/>
        <path d="M151.72,383.19a8.95,8.95,0,1,0-17.9,0v17.9h17.9Z" fill="#f3cc6d"/>
        <path d="M124.87,383.19a8.95,8.95,0,0,0-17.9,0v17.9h17.9Z" fill="#f3cc6d"/>
        <polygon points="160.66 401.09 151.72 401.09 133.82 401.09 124.87 401.09 106.97 401.09 98.03 401.09 98.03 454.78 106.97 454.78 124.87 454.78 133.82 454.78 151.72 454.78 160.66 454.78 160.66 401.09" fill="#333331"/>
      </g>
      <g>
        <path d="M204.86,472.68a8.95,8.95,0,0,0,17.9,0v-17.9h-17.9Z" fill="#f3cc6d"/>
        <path d="M195.91,472.68v-17.9H178v17.9a8.95,8.95,0,0,0,17.9,0Z" fill="#f3cc6d"/>
        <path d="M222.76,383.19a8.95,8.95,0,0,0-17.9,0v17.9h17.9Z" fill="#f3cc6d"/>
        <path d="M195.91,383.19a8.95,8.95,0,0,0-17.9,0v17.9h17.9Z" fill="#f3cc6d"/>
        <polygon points="231.71 401.09 222.76 401.09 204.86 401.09 195.91 401.09 178.02 401.09 169.07 401.09 169.07 454.78 178.02 454.78 195.91 454.78 204.86 454.78 222.76 454.78 231.71 454.78 231.71 401.09" fill="#333331"/>
      </g>
      <g>
        <path d="M275.91,472.68a8.95,8.95,0,0,0,17.9,0v-17.9h-17.9Z" fill="#f3cc6d"/>
        <path d="M267,472.68v-17.9h-17.9v17.9a8.95,8.95,0,1,0,17.9,0Z" fill="#f3cc6d"/>
        <path d="M293.8,383.19a8.95,8.95,0,0,0-17.9,0v17.9h17.9Z" fill="#f3cc6d"/>
        <path d="M267,383.19a8.95,8.95,0,1,0-17.9,0v17.9H267Z" fill="#f3cc6d"/>
        <polygon points="302.75 401.09 293.8 401.09 275.91 401.09 266.96 401.09 249.06 401.09 240.11 401.09 240.11 454.78 249.06 454.78 266.96 454.78 275.91 454.78 293.8 454.78 302.75 454.78 302.75 401.09" fill="#333331"/>
      </g>
      <g>
        <path d="M346.95,472.68a8.95,8.95,0,0,0,17.9,0v-17.9h-17.9Z" fill="#f3cc6d"/>
        <path d="M338,472.68v-17.9H320.1v17.9a8.95,8.95,0,0,0,17.9,0Z" fill="#f3cc6d"/>
        <path d="M364.84,383.19a8.95,8.95,0,1,0-17.9,0v17.9h17.9Z" fill="#f3cc6d"/>
        <path d="M338,383.19a8.95,8.95,0,0,0-17.9,0v17.9H338Z" fill="#f3cc6d"/>
        <polygon points="373.79 401.09 364.85 401.09 346.95 401.09 338 401.09 320.1 401.09 311.15 401.09 311.15 454.78 320.1 454.78 338 454.78 346.95 454.78 364.85 454.78 373.79 454.78 373.79 401.09" fill="#333331"/>
      </g>
      <g>
        <path d="M418,472.68a8.95,8.95,0,1,0,17.9,0v-17.9H418Z" fill="#f3cc6d"/>
        <path d="M409,472.68v-17.9h-17.9v17.9a8.95,8.95,0,0,0,17.9,0Z" fill="#f3cc6d"/>
        <path d="M435.89,383.19a8.95,8.95,0,1,0-17.9,0v17.9h17.9Z" fill="#f3cc6d"/>
        <path d="M409,383.19a8.95,8.95,0,1,0-17.9,0v17.9H409Z" fill="#f3cc6d"/>
        <polygon points="444.84 401.09 435.89 401.09 417.99 401.09 409.04 401.09 391.15 401.09 382.2 401.09 382.2 454.78 391.15 454.78 409.04 454.78 417.99 454.78 435.89 454.78 444.84 454.78 444.84 401.09" fill="#333331"/>
      </g>
      <g>
        <path d="M489,472.68a8.95,8.95,0,1,0,17.9,0v-17.9H489Z" fill="#f3cc6d"/>
        <path d="M480.09,472.68v-17.9h-17.9v17.9a8.95,8.95,0,1,0,17.9,0Z" fill="#f3cc6d"/>
        <path d="M506.93,383.19a8.95,8.95,0,0,0-17.9,0v17.9h17.9Z" fill="#f3cc6d"/>
        <path d="M480.09,383.19a8.95,8.95,0,0,0-17.9,0v17.9h17.9Z" fill="#f3cc6d"/>
        <polygon points="515.88 401.09 506.93 401.09 489.03 401.09 480.08 401.09 462.19 401.09 453.24 401.09 453.24 454.78 462.19 454.78 480.08 454.78 489.03 454.78 506.93 454.78 515.88 454.78 515.88 401.09" fill="#333331"/>
      </g>
      <g>
        <path d="M560.08,472.68a8.95,8.95,0,0,0,17.9,0v-17.9h-17.9Z" fill="#f3cc6d"/>
        <path d="M551.13,472.68v-17.9h-17.9v17.9a8.95,8.95,0,0,0,17.9,0Z" fill="#f3cc6d"/>
        <path d="M578,383.19a8.95,8.95,0,1,0-17.9,0v17.9H578Z" fill="#f3cc6d"/>
        <path d="M551.13,383.19a8.95,8.95,0,1,0-17.9,0v17.9h17.9Z" fill="#f3cc6d"/>
        <polygon points="586.92 401.09 577.97 401.09 560.08 401.09 551.13 401.09 533.23 401.09 524.28 401.09 524.28 454.78 533.23 454.78 551.13 454.78 560.08 454.78 577.97 454.78 586.92 454.78 586.92 401.09" fill="#333331"/>
      </g>
      <g>
        <path d="M631.12,472.68a8.95,8.95,0,0,0,17.9,0v-17.9h-17.9Z" fill="#f3cc6d"/>
        <path d="M622.17,472.68v-17.9h-17.9v17.9a8.95,8.95,0,0,0,17.9,0Z" fill="#f3cc6d"/>
        <path d="M649,383.19a8.95,8.95,0,1,0-17.9,0v17.9H649Z" fill="#f3cc6d"/>
        <path d="M622.17,383.19a8.95,8.95,0,0,0-17.9,0v17.9h17.9Z" fill="#f3cc6d"/>
        <polygon points="657.96 401.09 649.02 401.09 631.12 401.09 622.17 401.09 604.27 401.09 595.33 401.09 595.33 454.78 604.27 454.78 622.17 454.78 631.12 454.78 649.02 454.78 657.96 454.78 657.96 401.09" fill="#333331"/>
      </g>
      <g>
        <path d="M702.16,472.68a8.95,8.95,0,0,0,17.9,0v-17.9h-17.9Z" fill="#f3cc6d"/>
        <path d="M693.21,472.68v-17.9h-17.9v17.9a8.95,8.95,0,0,0,17.9,0Z" fill="#f3cc6d"/>
        <path d="M720.06,383.19a8.95,8.95,0,0,0-17.9,0v17.9h17.9Z" fill="#f3cc6d"/>
        <path d="M693.21,383.19a8.95,8.95,0,0,0-17.9,0v17.9h17.9Z" fill="#f3cc6d"/>
        <polygon points="729.01 401.09 720.06 401.09 702.16 401.09 693.21 401.09 675.32 401.09 666.37 401.09 666.37 454.78 675.32 454.78 693.21 454.78 702.16 454.78 720.06 454.78 729.01 454.78 729.01 401.09" fill="#333331"/>
      </g>
      <g>
        <path d="M773.2,472.68a8.95,8.95,0,0,0,17.9,0v-17.9H773.2Z" fill="#f3cc6d"/>
        <path d="M764.26,472.68v-17.9h-17.9v17.9a8.95,8.95,0,0,0,17.9,0Z" fill="#f3cc6d"/>
        <path d="M791.1,383.19a8.95,8.95,0,1,0-17.9,0v17.9h17.9Z" fill="#f3cc6d"/>
        <path d="M764.26,383.19a8.95,8.95,0,1,0-17.9,0v17.9h17.9Z" fill="#f3cc6d"/>
        <polygon points="800.05 401.09 791.1 401.09 773.21 401.09 764.26 401.09 746.36 401.09 737.41 401.09 737.41 454.78 746.36 454.78 764.26 454.78 773.21 454.78 791.1 454.78 800.05 454.78 800.05 401.09" fill="#333331"/>
      </g>
      <g>
        <path d="M844.25,472.68a8.95,8.95,0,0,0,17.9,0v-17.9h-17.9Z" fill="#f3cc6d"/>
        <path d="M835.3,472.68v-17.9H817.4v17.9a8.95,8.95,0,0,0,17.9,0Z" fill="#f3cc6d"/>
        <path d="M862.14,383.19a8.95,8.95,0,1,0-17.9,0v17.9h17.9Z" fill="#f3cc6d"/>
        <path d="M835.3,383.19a8.95,8.95,0,0,0-17.9,0v17.9h17.9Z" fill="#f3cc6d"/>
        <polygon points="871.09 401.09 862.14 401.09 844.25 401.09 835.3 401.09 817.4 401.09 808.45 401.09 808.45 454.78 817.4 454.78 835.3 454.78 844.25 454.78 862.14 454.78 871.09 454.78 871.09 401.09" fill="#333331"/>
      </g>
    </g>
  </g>
</svg>
