<?xml version="1.0" encoding="utf-8"?>
<!-- Generator: Adobe Illustrator 21.1.0, SVG Export Plug-In . SVG Version: 6.00 Build 0)  -->
<svg version="1.0" id="Layer_1" xmlns="http://www.w3.org/2000/svg" xmlns:xlink="http://www.w3.org/1999/xlink" x="0px" y="0px"
	 width="512px" height="512px" viewBox="0 0 512 512" enable-background="new 0 0 512 512" xml:space="preserve">
<g>
	<path fill="#EFC54B" d="M26,177.9h26v69.4H26V177.9z"/>
	<path fill="#EFC54B" d="M26,316.7h26v69.4H26V316.7z"/>
	<path fill="#DC691D" d="M60.7,151.9H26c-4.8,0-8.7-3.9-8.7-8.7c0-4.8,3.9-8.7,8.7-8.7h34.7c4.8,0,8.7,3.9,8.7,8.7
		C69.4,148,65.5,151.9,60.7,151.9z"/>
	<path fill="#DC691D" d="M60.7,290.7H26c-4.8,0-8.7-3.9-8.7-8.7c0-4.8,3.9-8.7,8.7-8.7h34.7c4.8,0,8.7,3.9,8.7,8.7
		C69.4,286.8,65.5,290.7,60.7,290.7z"/>
	<path fill="#EFC54B" d="M121.5,368.8h190.9v60.7H121.5V368.8z"/>
	<path fill="#EFC54B" d="M364.5,368.8h69.4v60.7h-69.4V368.8z"/>
	<path fill="#4C4C4D" d="M469.5,125.8h-400v243h34h366c23.5,0,42.5-19.4,42.5-43.4V169.2C512,145.3,493,125.8,469.5,125.8
		L469.5,125.8z"/>
	<path fill="#E3E9EA" d="M60.7,73.8H8.7c-4.8,0-8.7,3.9-8.7,8.7s3.9,8.7,8.7,8.7h43.4v338.4c0,4.8,3.9,8.7,8.7,8.7
		c4.8,0,8.7-3.9,8.7-8.7V82.4C69.4,77.7,65.5,73.8,60.7,73.8z"/>
	<circle fill="#282C2A" cx="390.5" cy="247.3" r="86.8"/>
	<circle fill="#282C2A" cx="182.2" cy="247.3" r="86.8"/>
	<path fill="#DC691D" d="M269,394.8c-4.8,0-8.7,3.9-8.7,8.7v26h17.4v-26C277.7,398.7,273.8,394.8,269,394.8z"/>
	<path fill="#DC691D" d="M234.3,394.8c-4.8,0-8.7,3.9-8.7,8.7v26H243v-26C243,398.7,239.1,394.8,234.3,394.8z"/>
	<path fill="#DC691D" d="M199.6,394.8c-4.8,0-8.7,3.9-8.7,8.7v26h17.4v-26C208.3,398.7,204.4,394.8,199.6,394.8z"/>
	<path fill="#DC691D" d="M164.9,394.8c-4.8,0-8.7,3.9-8.7,8.7v26h17.4v-26C173.6,398.7,169.7,394.8,164.9,394.8z"/>
	<path fill="#DC691D" d="M399.2,394.8c-4.8,0-8.7,3.9-8.7,8.7v26h17.4v-26C407.9,398.7,404,394.8,399.2,394.8z"/>
</g>
<path id="fan2" fill="#EFC54B" d="M470.3,253.5c-7,7-17.7,12-28.7,13.3c-7.8,1-15-0.1-20.6-2.9c1.5-2.7,2.6-5.6,3.3-8.6
	c21.6-4.3,38.4-26.1,43-48.2c-3.5-6.7-7.9-12.8-12.9-18.3c-1.9,1.6-3.1,3.9-3.1,6.5c0,16.9-12.1,37.1-27.5,42.2
	c-0.9-3-2.2-5.8-3.8-8.4c12.2-18.4,8.7-45.7-3.7-64.6c-7-2.2-14.4-3.4-22-3.7c-0.2,2.4,0.5,4.9,2.4,6.8c12,12,17.7,34.8,10.4,49.3
	c-2.7-1.5-5.6-2.6-8.7-3.3c-4.3-21.6-26.1-38.4-48.2-43c-6.7,3.5-12.8,7.9-18.3,12.9c1.6,1.9,3.9,3.1,6.5,3.1
	c17,0,37.1,12.1,42.2,27.5c-3,0.9-5.8,2.2-8.4,3.8c-9.3-6.3-21.5-8.8-34.9-7.2l0,0c-10.6,1.3-21,5.3-29.7,11c-2.2,7-3.4,14.4-3.7,22
	c0.2,0,0.5,0.1,0.7,0.1c2.2,0,4.4-0.9,6.1-2.5c7-7,17.7-12,28.7-13.3c7.8-1,15,0.1,20.6,2.9c-1.5,2.7-2.6,5.6-3.3,8.6
	c-21.6,4.3-38.4,26.1-43,48.2c3.5,6.7,7.9,12.8,12.9,18.3c1.9-1.6,3.1-3.9,3.1-6.5c0-16.9,12.1-37.1,27.5-42.2
	c0.9,3,2.2,5.8,3.8,8.4c-12.2,18.4-8.7,45.7,3.7,64.6c7,2.2,14.4,3.4,22,3.7c0.2-2.4-0.5-4.9-2.4-6.8c-12-12-17.7-34.8-10.4-49.3
	c2.7,1.5,5.6,2.6,8.7,3.3c4.3,21.6,26.1,38.4,48.2,43c6.7-3.5,12.8-7.9,18.3-12.9c-1.6-1.9-3.9-3.1-6.5-3.1
	c-17,0-37.1-12.1-42.2-27.5c3-0.9,5.8-2.2,8.4-3.8c7.5,5,16.8,7.7,27.1,7.7c2.5,0,5.2-0.2,7.8-0.5c10.6-1.3,21-5.3,29.7-11
	c2.2-7,3.3-14.4,3.7-22h0C474.7,250.8,472.2,251.6,470.3,253.5z M390.5,264.7c-9.6,0-17.4-7.8-17.4-17.4c0-9.6,7.8-17.4,17.4-17.4
	c9.6,0,17.4,7.8,17.4,17.4C407.9,256.9,400.1,264.7,390.5,264.7z"/>
<path id="fan1" fill="#EFC54B" d="M227.6,284.5c2.5,0,5.2-0.2,7.8-0.5c10.6-1.3,21-5.3,29.7-11c2.2-7,3.3-14.4,3.7-22
	c-2.4-0.2-4.9,0.5-6.8,2.4c-7,7-17.7,12-28.7,13.3c-7.8,1-15-0.1-20.6-2.9c1.5-2.7,2.6-5.6,3.3-8.6c21.6-4.3,38.4-26.1,43-48.2
	c-3.5-6.7-7.9-12.8-12.9-18.3c-1.9,1.6-3.1,3.9-3.1,6.5c0,16.9-12.1,37.1-27.5,42.2c-0.9-3-2.2-5.8-3.8-8.4
	c12.2-18.4,8.7-45.7-3.7-64.6c-7-2.2-14.4-3.4-22-3.7c-0.2,2.4,0.5,4.9,2.4,6.8c12,12,17.7,34.8,10.4,49.3c-2.7-1.5-5.6-2.6-8.7-3.3
	c-4.3-21.6-26.1-38.4-48.2-43c-6.7,3.5-12.8,7.9-18.3,12.9c1.6,1.9,3.9,3.1,6.5,3.1c17,0,37.1,12.1,42.2,27.5
	c-3,0.9-5.8,2.2-8.4,3.8c-9.3-6.3-21.5-8.8-34.9-7.2c-10.6,1.3-21,5.3-29.7,11c-2.2,7-3.4,14.4-3.7,22c0.2,0,0.5,0.1,0.7,0.1
	c2.2,0,4.4-0.9,6.1-2.5c7-7,17.7-12,28.7-13.3c7.8-1,15,0.1,20.6,2.9c-1.5,2.7-2.6,5.6-3.3,8.6c-21.6,4.3-38.4,26.1-43,48.2
	c3.5,6.7,7.9,12.8,12.9,18.3c1.9-1.6,3.1-3.9,3.1-6.5c0-16.9,12.1-37.1,27.5-42.2c0.9,3,2.2,5.8,3.8,8.4
	c-12.2,18.4-8.7,45.7,3.7,64.6c7,2.2,14.4,3.4,22,3.7c0.2-2.4-0.5-4.9-2.4-6.8c-12-12-17.7-34.8-10.4-49.3c2.7,1.5,5.6,2.6,8.7,3.3
	c4.3,21.6,26.1,38.4,48.2,43c6.7-3.5,12.8-7.9,18.3-12.9c-1.6-1.9-3.9-3.1-6.5-3.1c-17,0-37.1-12.1-42.2-27.5c3-0.9,5.8-2.2,8.4-3.8
	C208,281.8,217.3,284.5,227.6,284.5z M182.2,264.7c-9.6,0-17.4-7.8-17.4-17.4c0-9.6,7.8-17.4,17.4-17.4c9.6,0,17.4,7.8,17.4,17.4
	C199.6,256.9,191.8,264.7,182.2,264.7z"/>
</svg>
