<?xml version="1.0" encoding="utf-8"?>
<!-- Generator: Adobe Illustrator 21.1.0, SVG Export Plug-In . SVG Version: 6.00 Build 0)  -->
<svg version="1.0" id="Layer_1" xmlns="http://www.w3.org/2000/svg" xmlns:xlink="http://www.w3.org/1999/xlink" x="0px" y="0px"
	 width="512px" height="512px" viewBox="0 0 512 512" enable-background="new 0 0 512 512" xml:space="preserve">
<path fill="#B39438" d="M121.1,368.8h186.5v3.7H121.1V368.8z"/>
<path fill="#B39438" d="M340.4,368.8h112v3.7h-112V368.8z"/>
<path fill="#DC691D" d="M60.7,151.9H26c-4.8,0-8.7-3.9-8.7-8.7s3.9-8.7,8.7-8.7h34.7c4.8,0,8.7,3.9,8.7,8.7S65.5,151.9,60.7,151.9z"
	/>
<path fill="#DC691D" d="M60.7,290.7H26c-4.8,0-8.7-3.9-8.7-8.7c0-4.8,3.9-8.7,8.7-8.7h34.7c4.8,0,8.7,3.9,8.7,8.7
	C69.4,286.8,65.5,290.7,60.7,290.7z"/>
<path fill="#EFC54B" d="M121.1,372.5h186.5V401H121.1V372.5z"/>
<path fill="#39393A" d="M469.5,115.5h-400v243h34h366c23.5,0,42.5-19.4,42.5-43.4V158.9C512,135,493,115.5,469.5,115.5L469.5,115.5z
	"/>
<path fill="#4C4C4D" d="M469.5,125.8h-400v243h34h366c23.5,0,42.5-19.4,42.5-43.4V169.2C512,145.3,493,125.8,469.5,125.8
	L469.5,125.8z"/>
<polygon fill="#E3E9EA" points="52,73.8 0,73.8 0,91 52,91 52,438.3 69.5,438.3 69.5,91 69.5,73.8 "/>
<circle fill="#282C2A" cx="390.5" cy="247.3" r="86.8"/>
<circle fill="#282C2A" cx="182.2" cy="247.3" r="86.8"/>
<path fill="#DC691D" d="M132.1,380.4c-2.1,0-3.8,1.7-3.8,3.8V401h7.5v-16.8C135.8,382.1,134.1,380.4,132.1,380.4z"/>
<path fill="#DC691D" d="M147.1,380.4c-2.1,0-3.8,1.7-3.8,3.8V401h7.5v-16.8C150.8,382.1,149.1,380.4,147.1,380.4z"/>
<path fill="#DC691D" d="M162.1,380.4c-2.1,0-3.8,1.7-3.8,3.8V401h7.5v-16.8C165.8,382.1,164.1,380.4,162.1,380.4z"/>
<path fill="#DC691D" d="M177.1,380.4c-2.1,0-3.8,1.7-3.8,3.8V401h7.5v-16.8C180.8,382.1,179.1,380.4,177.1,380.4z"/>
<path fill="#DC691D" d="M192.1,380.4c-2.1,0-3.8,1.7-3.8,3.8V401h7.5v-16.8C195.8,382.1,194.1,380.4,192.1,380.4z"/>
<path fill="#DC691D" d="M207.1,380.4c-2.1,0-3.8,1.7-3.8,3.8V401h7.5v-16.8C210.8,382.1,209.1,380.4,207.1,380.4z"/>
<path fill="#DC691D" d="M222.1,380.4c-2.1,0-3.8,1.7-3.8,3.8V401h7.5v-16.8C225.8,382.1,224.1,380.4,222.1,380.4z"/>
<path fill="#DC691D" d="M237.1,380.4c-2.1,0-3.8,1.7-3.8,3.8V401h7.5v-16.8C240.8,382.1,239.1,380.4,237.1,380.4z"/>
<path fill="#DC691D" d="M252.1,380.4c-2.1,0-3.8,1.7-3.8,3.8V401h7.5v-16.8C255.8,382.1,254.1,380.4,252.1,380.4z"/>
<path fill="#DC691D" d="M267.1,380.4c-2.1,0-3.8,1.7-3.8,3.8V401h7.5v-16.8C270.8,382.1,269.1,380.4,267.1,380.4z"/>
<path fill="#DC691D" d="M282.1,380.4c-2.1,0-3.8,1.7-3.8,3.8V401h7.5v-16.8C285.8,382.1,284.1,380.4,282.1,380.4z"/>
<path fill="#DC691D" d="M297.1,380.4c-2.1,0-3.8,1.7-3.8,3.8V401h7.5v-16.8C300.8,382.1,299.1,380.4,297.1,380.4z"/>
<path fill="#EFC54B" d="M340.4,372.5h112V401h-112V372.5z"/>
<path id="fan2" fill="#EFC54B" d="M470.3,253.5c-7,7-17.7,12-28.7,13.3c-7.8,1-15-0.1-20.6-2.9c1.5-2.7,2.6-5.6,3.3-8.6
	c21.6-4.3,38.4-26.1,43-48.2c-3.5-6.7-7.9-12.8-12.9-18.3c-1.9,1.6-3.1,3.9-3.1,6.5c0,16.9-12.1,37.1-27.5,42.2
	c-0.9-3-2.2-5.8-3.8-8.4c12.2-18.4,8.7-45.7-3.7-64.6c-7-2.2-14.4-3.4-22-3.7c-0.2,2.4,0.5,4.9,2.4,6.8c12,12,17.7,34.8,10.4,49.3
	c-2.7-1.5-5.6-2.6-8.7-3.3c-4.3-21.6-26.1-38.4-48.2-43c-6.7,3.5-12.8,7.9-18.3,12.9c1.6,1.9,3.9,3.1,6.5,3.1
	c17,0,37.1,12.1,42.2,27.5c-3,0.9-5.8,2.2-8.4,3.8c-9.3-6.3-21.5-8.8-34.9-7.2l0,0c-10.6,1.3-21,5.3-29.7,11c-2.2,7-3.4,14.4-3.7,22
	c0.2,0,0.5,0.1,0.7,0.1c2.2,0,4.4-0.9,6.1-2.5c7-7,17.7-12,28.7-13.3c7.8-1,15,0.1,20.6,2.9c-1.5,2.7-2.6,5.6-3.3,8.6
	c-21.6,4.3-38.4,26.1-43,48.2c3.5,6.7,7.9,12.8,12.9,18.3c1.9-1.6,3.1-3.9,3.1-6.5c0-16.9,12.1-37.1,27.5-42.2
	c0.9,3,2.2,5.8,3.8,8.4c-12.2,18.4-8.7,45.7,3.7,64.6c7,2.2,14.4,3.4,22,3.7c0.2-2.4-0.5-4.9-2.4-6.8c-12-12-17.7-34.8-10.4-49.3
	c2.7,1.5,5.6,2.6,8.7,3.3c4.3,21.6,26.1,38.4,48.2,43c6.7-3.5,12.8-7.9,18.3-12.9c-1.6-1.9-3.9-3.1-6.5-3.1
	c-17,0-37.1-12.1-42.2-27.5c3-0.9,5.8-2.2,8.4-3.8c7.5,5,16.8,7.7,27.1,7.7c2.5,0,5.2-0.2,7.8-0.5c10.6-1.3,21-5.3,29.7-11
	c2.2-7,3.3-14.4,3.7-22l0,0C474.7,250.8,472.2,251.6,470.3,253.5z M390.5,264.7c-9.6,0-17.4-7.8-17.4-17.4s7.8-17.4,17.4-17.4
	s17.4,7.8,17.4,17.4C407.9,256.9,400.1,264.7,390.5,264.7z"/>
<path id="fan1" fill="#EFC54B" d="M227.6,284.5c2.5,0,5.2-0.2,7.8-0.5c10.6-1.3,21-5.3,29.7-11c2.2-7,3.3-14.4,3.7-22
	c-2.4-0.2-4.9,0.5-6.8,2.4c-7,7-17.7,12-28.7,13.3c-7.8,1-15-0.1-20.6-2.9c1.5-2.7,2.6-5.6,3.3-8.6c21.6-4.3,38.4-26.1,43-48.2
	c-3.5-6.7-7.9-12.8-12.9-18.3c-1.9,1.6-3.1,3.9-3.1,6.5c0,16.9-12.1,37.1-27.5,42.2c-0.9-3-2.2-5.8-3.8-8.4
	c12.2-18.4,8.7-45.7-3.7-64.6c-7-2.2-14.4-3.4-22-3.7c-0.2,2.4,0.5,4.9,2.4,6.8c12,12,17.7,34.8,10.4,49.3c-2.7-1.5-5.6-2.6-8.7-3.3
	c-4.3-21.6-26.1-38.4-48.2-43c-6.7,3.5-12.8,7.9-18.3,12.9c1.6,1.9,3.9,3.1,6.5,3.1c17,0,37.1,12.1,42.2,27.5
	c-3,0.9-5.8,2.2-8.4,3.8c-9.3-6.3-21.5-8.8-34.9-7.2c-10.6,1.3-21,5.3-29.7,11c-2.2,7-3.4,14.4-3.7,22c0.2,0,0.5,0.1,0.7,0.1
	c2.2,0,4.4-0.9,6.1-2.5c7-7,17.7-12,28.7-13.3c7.8-1,15,0.1,20.6,2.9c-1.5,2.7-2.6,5.6-3.3,8.6c-21.6,4.3-38.4,26.1-43,48.2
	c3.5,6.7,7.9,12.8,12.9,18.3c1.9-1.6,3.1-3.9,3.1-6.5c0-16.9,12.1-37.1,27.5-42.2c0.9,3,2.2,5.8,3.8,8.4
	c-12.2,18.4-8.7,45.7,3.7,64.6c7,2.2,14.4,3.4,22,3.7c0.2-2.4-0.5-4.9-2.4-6.8c-12-12-17.7-34.8-10.4-49.3c2.7,1.5,5.6,2.6,8.7,3.3
	c4.3,21.6,26.1,38.4,48.2,43c6.7-3.5,12.8-7.9,18.3-12.9c-1.6-1.9-3.9-3.1-6.5-3.1c-17,0-37.1-12.1-42.2-27.5c3-0.9,5.8-2.2,8.4-3.8
	C208,281.8,217.3,284.5,227.6,284.5z M182.2,264.7c-9.6,0-17.4-7.8-17.4-17.4s7.8-17.4,17.4-17.4c9.6,0,17.4,7.8,17.4,17.4
	C199.6,256.9,191.8,264.7,182.2,264.7z"/>
<path fill="#262627" d="M341.7,143.6H225.8c-2.4,0-4.3-2-4.3-4.3l0,0c0-2.4,2-4.3,4.3-4.3h115.8c2.4,0,4.3,2,4.3,4.3l0,0
	C346,141.7,344,143.6,341.7,143.6z"/>
<path fill="#262627" d="M334.2,156.4H233.3c-2.4,0-4.3-2-4.3-4.3l0,0c0-2.4,2-4.3,4.3-4.3h100.8c2.4,0,4.3,2,4.3,4.3l0,0
	C338.5,154.5,336.5,156.4,334.2,156.4z"/>
<path fill="#262627" d="M327,169.2h-86.6c-2.4,0-4.3-2-4.3-4.3l0,0c0-2.4,2-4.3,4.3-4.3H327c2.4,0,4.3,2,4.3,4.3l0,0
	C331.4,167.2,329.4,169.2,327,169.2z"/>
<path fill="#262627" d="M341.7,353.7H225.8c-2.4,0-4.3,2-4.3,4.3v0c0,2.4,2,4.3,4.3,4.3h115.8c2.4,0,4.3-2,4.3-4.3v0
	C346,355.6,344,353.7,341.7,353.7z"/>
<path fill="#262627" d="M334.2,340.9H233.3c-2.4,0-4.3,2-4.3,4.3l0,0c0,2.4,2,4.3,4.3,4.3h100.8c2.4,0,4.3-2,4.3-4.3l0,0
	C338.5,342.9,336.5,340.9,334.2,340.9z"/>
<path fill="#262627" d="M327,328.1h-86.6c-2.4,0-4.3,2-4.3,4.3v0c0,2.4,2,4.3,4.3,4.3H327c2.4,0,4.3-2,4.3-4.3v0
	C331.4,330.1,329.4,328.1,327,328.1z"/>
<g>
	<rect x="26" y="214" fill="#EFC54B" width="26" height="5"/>
	<rect x="26" y="202.5" fill="#EFC54B" width="26" height="5"/>
	<rect x="26" y="248.5" fill="#EFC54B" width="26" height="6.3"/>
	<rect x="26" y="225.5" fill="#EFC54B" width="26" height="5"/>
	<rect x="26" y="237" fill="#EFC54B" width="26" height="5"/>
	<rect x="26" y="177.9" fill="#EFC54B" width="26" height="6.6"/>
	<rect x="26" y="191" fill="#EFC54B" width="26" height="5"/>
	<rect x="26" y="184.5" fill="#DC691D" width="26" height="6.5"/>
	<rect x="26" y="196" fill="#DC691D" width="26" height="6.5"/>
	<rect x="26" y="207.5" fill="#DC691D" width="26" height="6.5"/>
	<rect x="26" y="219" fill="#DC691D" width="26" height="6.5"/>
	<rect x="26" y="230.5" fill="#DC691D" width="26" height="6.5"/>
	<rect x="26" y="242" fill="#DC691D" width="26" height="6.5"/>
</g>
<g>
	<rect x="26" y="343.8" fill="#EFC54B" width="26" height="5"/>
	<rect x="26" y="332.3" fill="#EFC54B" width="26" height="5"/>
	<rect x="26" y="378.3" fill="#EFC54B" width="26" height="6.3"/>
	<rect x="26" y="355.3" fill="#EFC54B" width="26" height="5"/>
	<rect x="26" y="366.8" fill="#EFC54B" width="26" height="5"/>
	<rect x="26" y="307.6" fill="#EFC54B" width="26" height="6.6"/>
	<rect x="26" y="320.8" fill="#EFC54B" width="26" height="5"/>
	<rect x="26" y="314.3" fill="#DC691D" width="26" height="6.5"/>
	<rect x="26" y="325.8" fill="#DC691D" width="26" height="6.5"/>
	<rect x="26" y="337.3" fill="#DC691D" width="26" height="6.5"/>
	<rect x="26" y="348.8" fill="#DC691D" width="26" height="6.5"/>
	<rect x="26" y="360.3" fill="#DC691D" width="26" height="6.5"/>
	<rect x="26" y="371.8" fill="#DC691D" width="26" height="6.5"/>
</g>
<path fill="#DC691D" d="M351.4,380.4c-2.1,0-3.8,1.7-3.8,3.8V401h7.5v-16.8C355.1,382.1,353.5,380.4,351.4,380.4z"/>
<path fill="#DC691D" d="M366.4,380.4c-2.1,0-3.8,1.7-3.8,3.8V401h7.5v-16.8C370.1,382.1,368.5,380.4,366.4,380.4z"/>
<path fill="#DC691D" d="M381.4,380.4c-2.1,0-3.8,1.7-3.8,3.8V401h7.5v-16.8C385.1,382.1,383.5,380.4,381.4,380.4z"/>
<path fill="#DC691D" d="M396.4,380.4c-2.1,0-3.8,1.7-3.8,3.8V401h7.5v-16.8C400.1,382.1,398.5,380.4,396.4,380.4z"/>
<path fill="#DC691D" d="M411.4,380.4c-2.1,0-3.8,1.7-3.8,3.8V401h7.5v-16.8C415.1,382.1,413.5,380.4,411.4,380.4z"/>
<path fill="#DC691D" d="M426.4,380.4c-2.1,0-3.8,1.7-3.8,3.8V401h7.5v-16.8C430.1,382.1,428.5,380.4,426.4,380.4z"/>
<path fill="#DC691D" d="M441.4,380.4c-2.1,0-3.8,1.7-3.8,3.8V401h7.5v-16.8C445.1,382.1,443.5,380.4,441.4,380.4z"/>
</svg>
