<?xml version="1.0" encoding="utf-8"?>
<!-- Generator: Adobe Illustrator 21.1.0, SVG Export Plug-In . SVG Version: 6.00 Build 0)  -->
<svg version="1.0" id="Capa_1" xmlns="http://www.w3.org/2000/svg" xmlns:xlink="http://www.w3.org/1999/xlink" x="0px" y="0px"
	 width="512px" height="512px" viewBox="0 0 512 512" enable-background="new 0 0 512 512" xml:space="preserve">
<path fill="#4D4D4D" d="M497.7,50.1H314H14.3C6.4,50.1,0,56.5,0,64.4v262h251.5H512v-262C512,56.5,505.6,50.1,497.7,50.1z"/>
<path fill="#CCCCCC" d="M146.8,326.4H0v34.2c0,7.9,6.4,14.3,14.3,14.3h103.2h92.9h91.1h196.1c7.9,0,14.3-6.4,14.3-14.3v-34.2H146.8z
	"/>
<path fill="#CCCCCC" d="M352.3,461.9H159.7c-4.1,0-7.5-3.4-7.5-7.5s3.4-7.5,7.5-7.5h192.6c4.1,0,7.5,3.4,7.5,7.5
	S356.5,461.9,352.3,461.9z"/>
<polygon fill="#808080" points="210.5,367.7 209.6,374.8 209.6,374.8 "/>
<polygon fill="#808080" points="302.4,374.8 301.6,367.7 302.4,374.8 "/>
<polygon fill="#808080" points="302.4,374.8 302.4,374.8 308.7,426.5 203.3,426.5 209.6,374.8 209.6,374.8 200.9,446.9 311.1,446.9 
	"/>
<polygon fill="#616161" points="203.3,426.5 308.7,426.5 302.4,374.8 209.6,374.8 "/>
</svg>
