<?xml version="1.0" encoding="utf-8"?>
<!-- Generator: Adobe Illustrator 21.1.0, SVG Export Plug-In . SVG Version: 6.00 Build 0)  -->
<svg version="1.0" id="Flat" xmlns="http://www.w3.org/2000/svg" xmlns:xlink="http://www.w3.org/1999/xlink" x="0px" y="0px"
	 width="512px" height="512px" viewBox="0 0 512 512" enable-background="new 0 0 512 512" xml:space="preserve">
<path fill="#CFD2FC" d="M392,488H120c-26.5,0-48-21.5-48-48l0,0V72c0-26.5,21.5-48,48-48h224l96,96v320C440,466.5,418.5,488,392,488
	L392,488z"/>
<path fill="#5153FF" d="M72,360h368l0,0v80c0,26.5-21.5,48-48,48l0,0H120c-26.5,0-48-21.5-48-48l0,0V360L72,360z"/>
<path fill="#8690FA" d="M440,120h-48c-26.5,0-48-21.5-48-48V24L440,120z"/>
<path fill="#5153FF" d="M240,144c-4.4,0-8-3.6-8-8v-16c0-4.4,3.6-8,8-8s8,3.6,8,8v16C248,140.4,244.4,144,240,144z"/>
<g>
	<path fill="#8690FA" d="M208,176c-4.4,0-8-3.6-8-8v-48c0-4.4,3.6-8,8-8s8,3.6,8,8v48C216,172.4,212.4,176,208,176z"/>
	<path fill="#8690FA" d="M176,304c-4.4,0-8-3.6-8-8v-48c0-4.4,3.6-8,8-8s8,3.6,8,8v48C184,300.4,180.4,304,176,304z"/>
	<path fill="#8690FA" d="M336,304c-4.4,0-8-3.6-8-8v-80c0-4.4,3.6-8,8-8s8,3.6,8,8v80C344,300.4,340.4,304,336,304z"/>
</g>
<path fill="#5153FF" d="M176,192c-4.4,0-8-3.6-8-8v-16c0-4.4,3.6-8,8-8s8,3.6,8,8v16C184,188.4,180.4,192,176,192z"/>
<path fill="#5153FF" d="M208,272c-4.4,0-8-3.6-8-8v-16c0-4.4,3.6-8,8-8s8,3.6,8,8v16C216,268.4,212.4,272,208,272z"/>
<circle fill="#FFFFFF" cx="208" cy="296" r="8"/>
<circle fill="#FFFFFF" cx="176" cy="216" r="8"/>
<circle fill="#FFFFFF" cx="240" cy="168" r="8"/>
<path fill="#8690FA" d="M240,256c-4.4,0-8-3.6-8-8v-48c0-4.4,3.6-8,8-8s8,3.6,8,8v48C248,252.4,244.4,256,240,256z"/>
<path fill="#5153FF" d="M208,224c-4.4,0-8-3.6-8-8v-16c0-4.4,3.6-8,8-8s8,3.6,8,8v16C216,220.4,212.4,224,208,224z"/>
<circle fill="#FFFFFF" cx="336" cy="184" r="8"/>
<path fill="#8690FA" d="M272,304c-4.4,0-8-3.6-8-8v-48c0-4.4,3.6-8,8-8s8,3.6,8,8v48C280,300.4,276.4,304,272,304z"/>
<path fill="#5153FF" d="M272,176c-4.4,0-8-3.6-8-8v-16c0-4.4,3.6-8,8-8s8,3.6,8,8v16C280,172.4,276.4,176,272,176z"/>
<circle fill="#FFFFFF" cx="272" cy="120" r="8"/>
<path fill="#5153FF" d="M272,224c-4.4,0-8-3.6-8-8v-16c0-4.4,3.6-8,8-8s8,3.6,8,8v16C280,220.4,276.4,224,272,224z"/>
<path fill="#5153FF" d="M176,144c-4.4,0-8-3.6-8-8v-16c0-4.4,3.6-8,8-8s8,3.6,8,8v16C184,140.4,180.4,144,176,144z"/>
<path fill="#8690FA" d="M304,208c-4.4,0-8-3.6-8-8v-80c0-4.4,3.6-8,8-8s8,3.6,8,8v80C312,204.4,308.4,208,304,208z"/>
<circle fill="#FFFFFF" cx="304" cy="232" r="8"/>
<path fill="#8690FA" d="M304,304c-4.4,0-8-3.6-8-8v-32c0-4.4,3.6-8,8-8s8,3.6,8,8v32C312,300.4,308.4,304,304,304z"/>
<path fill="#5153FF" d="M240,304c-4.4,0-8-3.6-8-8v-16c0-4.4,3.6-8,8-8s8,3.6,8,8v16C248,300.4,244.4,304,240,304z"/>
<path fill="#5153FF" d="M336,160c-4.4,0-8-3.6-8-8v-16c0-4.4,3.6-8,8-8s8,3.6,8,8v16C344,156.4,340.4,160,336,160z"/>
<g>
	<path fill="#FFFFFF" d="M168.5,435.9c0-1.8-0.6-3.1-1.9-4s-3.5-1.9-6.7-3c-3.2-1-5.8-2.1-7.7-3.1c-5.1-2.8-7.7-6.5-7.7-11.2
		c0-2.4,0.7-4.6,2.1-6.5c1.4-1.9,3.4-3.4,5.9-4.5c2.6-1.1,5.5-1.6,8.7-1.6c3.2,0,6.1,0.6,8.6,1.8c2.5,1.2,4.5,2.8,5.9,5
		s2.1,4.6,2.1,7.3h-9.3c0-2.1-0.7-3.7-2-4.8c-1.3-1.1-3.1-1.7-5.5-1.7c-2.3,0-4,0.5-5.3,1.4c-1.3,1-1.9,2.2-1.9,3.8
		c0,1.5,0.7,2.7,2.2,3.7c1.5,1,3.7,1.9,6.5,2.8c5.3,1.6,9.2,3.6,11.6,5.9c2.4,2.4,3.6,5.3,3.6,8.8c0,3.9-1.5,7-4.4,9.2
		c-3,2.2-6.9,3.3-11.9,3.3c-3.5,0-6.6-0.6-9.5-1.9s-5-3-6.5-5.2s-2.3-4.8-2.3-7.7h9.3c0,5,3,7.5,8.9,7.5c2.2,0,3.9-0.5,5.2-1.3
		C167.8,438.8,168.5,437.5,168.5,435.9z"/>
	<path fill="#FFFFFF" d="M198.6,417.9c2.4-2.9,5.4-4.3,9-4.3c7.3,0,11,4.2,11.1,12.7v21.5h-9v-21.3c0-1.9-0.4-3.3-1.2-4.3
		c-0.8-0.9-2.2-1.4-4.1-1.4c-2.6,0-4.5,1-5.7,3v23.9h-9v-47.7h9V417.9z"/>
	<path fill="#FFFFFF" d="M251.2,447.8c-0.4-0.8-0.7-1.8-0.9-3c-2.2,2.4-5,3.6-8.5,3.6c-3.3,0-6-1-8.2-2.9s-3.2-4.3-3.2-7.2
		c0-3.6,1.3-6.3,4-8.2s6.4-2.9,11.4-2.9h4.1v-1.9c0-1.6-0.4-2.8-1.2-3.7c-0.8-0.9-2.1-1.4-3.8-1.4c-1.5,0-2.7,0.4-3.6,1.1
		c-0.9,0.7-1.3,1.7-1.3,3h-9c0-1.9,0.6-3.7,1.8-5.4s2.9-3,5.1-3.9c2.2-0.9,4.7-1.4,7.4-1.4c4.1,0,7.4,1,9.9,3.1
		c2.4,2.1,3.6,5,3.6,8.8V440c0,3.2,0.5,5.6,1.3,7.2v0.5H251.2z M243.8,441.5c1.3,0,2.5-0.3,3.7-0.9s1.9-1.4,2.5-2.4v-5.8h-3.4
		c-4.5,0-6.9,1.6-7.2,4.7l0,0.5c0,1.1,0.4,2,1.2,2.8C241.4,441.2,242.5,441.5,243.8,441.5z"/>
	<path fill="#FFFFFF" d="M270.8,430.7c0-5.2,1.2-9.4,3.5-12.5c2.3-3.1,5.6-4.7,9.6-4.7c3.3,0,6,1.2,8.1,3.7v-17.1h9v47.7H293
		l-0.4-3.6c-2.2,2.8-5.1,4.2-8.6,4.2c-4,0-7.1-1.6-9.5-4.7C272,440.6,270.8,436.3,270.8,430.7z M279.8,431.4c0,3.1,0.5,5.6,1.6,7.2
		c1.1,1.7,2.7,2.5,4.8,2.5c2.8,0,4.7-1.2,5.9-3.5v-13.3c-1.1-2.3-3.1-3.5-5.8-3.5C282,420.9,279.8,424.4,279.8,431.4z"/>
	<path fill="#FFFFFF" d="M329.8,448.4c-4.9,0-8.9-1.5-12-4.5c-3.1-3-4.6-7-4.6-12.1v-0.9c0-3.4,0.7-6.4,2-9c1.3-2.7,3.2-4.7,5.5-6.1
		c2.4-1.4,5.1-2.2,8.2-2.2c4.6,0,8.2,1.4,10.8,4.3c2.6,2.9,4,7,4,12.3v3.7h-21.4c0.3,2.2,1.2,4,2.6,5.3c1.5,1.3,3.3,2,5.5,2
		c3.5,0,6.2-1.3,8.1-3.8l4.4,4.9c-1.3,1.9-3.2,3.4-5.5,4.5C335.2,447.9,332.6,448.4,329.8,448.4z M328.8,420.8
		c-1.8,0-3.2,0.6-4.3,1.8c-1.1,1.2-1.8,2.9-2.1,5.2h12.5v-0.7c0-2-0.6-3.5-1.6-4.6C332.2,421.4,330.7,420.8,328.8,420.8z"/>
	<path fill="#FFFFFF" d="M374,422.6c-1.2-0.2-2.3-0.2-3.2-0.2c-3.4,0-5.6,1.1-6.7,3.4v22h-9v-33.6h8.5l0.2,4
		c1.8-3.1,4.3-4.6,7.5-4.6c1,0,1.9,0.1,2.8,0.4L374,422.6z"/>
</g>
</svg>
