<?xml version="1.0" encoding="utf-8"?>
<!-- Generator: Adobe Illustrator 21.1.0, SVG Export Plug-In . SVG Version: 6.00 Build 0)  -->
<svg version="1.0" id="Layer_1" xmlns="http://www.w3.org/2000/svg" xmlns:xlink="http://www.w3.org/1999/xlink" x="0px" y="0px"
	 width="512px" height="512px" viewBox="0 0 512 512" enable-background="new 0 0 512 512" xml:space="preserve">
<path fill="#464655" d="M85.7,230H33.9V83.1c0-14.3,11.6-25.9,25.9-25.9h392.3c14.3,0,25.9,11.6,25.9,25.9V230h-51.8V109H85.7V230"
	/>
<rect x="22.6" y="230.3" fill="#D2555A" width="466.8" height="202.1"/>
<rect x="144.2" y="57.2" fill="#52505F" enable-background="new    " width="223.5" height="51.8"/>
<path fill="#2A2A33" d="M341.3,81.7V50.9H170.7v30.8v32.5v0h0c0,11.8,9.6,21.3,21.3,21.3l0,0c11.8,0,21.3-9.5,21.3-21.3h0
	c0,11.8,9.6,21.3,21.3,21.3l0,0c11.8,0,21.3-9.5,21.3-21.3h0c0,11.8,9.6,21.3,21.3,21.3l0,0c11.8,0,21.3-9.5,21.3-21.3h0
	c0,11.8,9.6,21.3,21.3,21.3l0,0c11.8,0,21.3-9.5,21.3-21.3h0v0c0,0,0,0,0,0L341.3,81.7L341.3,81.7z"/>
<rect x="22.6" y="168.1" fill="#FF6465" width="466.8" height="50.6"/>
<g>
	<rect y="403.7" fill="#464655" width="68.2" height="57.4"/>
	<rect x="443.8" y="403.7" fill="#464655" width="68.2" height="57.4"/>
</g>
<rect y="205" fill="#AAB1C6" width="512" height="50.6"/>
<rect x="89" y="194.2" fill="#707487" width="51.2" height="87.1"/>
<polygon fill="#2A2A33" points="88.9,246.4 88.9,246.4 140.1,246.4 140.1,229.1 88.9,229.1 88.9,229.1 "/>
<rect x="371.9" y="194.2" fill="#707487" width="51.2" height="87.1"/>
<polygon fill="#2A2A33" points="371.9,246.4 371.9,246.4 423,246.4 423,229.1 371.9,229.1 371.9,229.1 "/>
</svg>
