<?xml version="1.0" encoding="utf-8"?>
<!-- Generator: Adobe Illustrator 21.1.0, SVG Export Plug-In . SVG Version: 6.00 Build 0)  -->
<svg version="1.0" id="Layer_1" xmlns="http://www.w3.org/2000/svg" xmlns:xlink="http://www.w3.org/1999/xlink" x="0px" y="0px"
	 width="512px" height="512px" viewBox="0 0 512 512" enable-background="new 0 0 512 512" xml:space="preserve">
<g id="g1">
	<path fill="#464655" d="M478.1,83.1c0-14.3-11.6-25.9-25.9-25.9H59.8c-14.3,0-25.9,11.6-25.9,25.9v85h51.8V109h340.5v59.1h51.8
		V83.1z"/>
	<rect x="144.2" y="57.2" fill="#52505F" enable-background="new    " width="223.5" height="51.8"/>
	<path fill="#2A2A33" d="M341.3,81.7V50.9H170.7v30.8v32.5v0h0c0,11.8,9.6,21.3,21.3,21.3l0,0c11.8,0,21.3-9.5,21.3-21.3h0
		c0,11.8,9.6,21.3,21.3,21.3l0,0c11.8,0,21.3-9.5,21.3-21.3h0c0,11.8,9.6,21.3,21.3,21.3l0,0c11.8,0,21.3-9.5,21.3-21.3h0
		c0,11.8,9.6,21.3,21.3,21.3l0,0c11.8,0,21.3-9.5,21.3-21.3h0v0c0,0,0,0,0,0L341.3,81.7L341.3,81.7z"/>
	<rect x="22.6" y="168.1" fill="#FF6465" width="466.8" height="36.8"/>
	<polygon fill="#AAB1C6" points="89,229.1 89,205 0,205 0,229.1 89,229.1 	"/>
	<polygon fill="#AAB1C6" points="423,229.1 512,229.1 512,205 423,205 423,229.1 	"/>
	<rect x="140.1" y="205" fill="#AAB1C6" width="231.7" height="24.2"/>
	<rect x="89" y="194.2" fill="#707487" width="51.2" height="10.8"/>
	<polygon fill="#707487" points="140.1,229.1 140.1,229.1 140.1,205 89,205 89,229.1 	"/>
	<rect x="371.9" y="194.2" fill="#707487" width="51.2" height="10.8"/>
	<polygon fill="#707487" points="371.9,229.1 423,229.1 423,205 371.9,205 371.9,229.1 	"/>
</g>
<g id="g2">
	<rect x="22.6" y="255.6" fill="#D2555A" width="466.8" height="176.8"/>
	<g>
		<rect y="403.7" fill="#464655" width="68.2" height="57.4"/>
		<rect x="443.8" y="403.7" fill="#464655" width="68.2" height="57.4"/>
	</g>
	<polygon fill="#AAB1C6" points="89,246.4 89,229.1 0,229.1 0,255.6 89,255.6 89,246.4 	"/>
	<polygon fill="#AAB1C6" points="512,229.1 423,229.1 423,246.4 423,246.4 423,255.6 512,255.6 	"/>
	<rect x="140.1" y="229.1" fill="#AAB1C6" width="231.7" height="26.5"/>
	<rect x="89" y="255.6" fill="#707487" width="51.2" height="25.7"/>
	<polygon fill="#707487" points="140.1,229.1 140.1,246.4 89,246.4 89,255.6 140.1,255.6 140.1,229.1 	"/>
	<rect x="89" y="229.1" fill="#2A2A33" width="0" height="17.3"/>
	<rect x="89" y="229.1" fill="#2A2A33" width="51.2" height="17.3"/>
	<rect x="371.9" y="255.6" fill="#707487" width="51.2" height="25.7"/>
	<polygon fill="#707487" points="371.9,246.4 371.9,229.1 371.9,229.1 371.9,255.6 423,255.6 423,246.4 	"/>
	<rect x="423" y="229.1" fill="#2A2A33" width="0" height="17.3"/>
	<rect x="371.9" y="229.1" fill="#2A2A33" width="51.2" height="17.3"/>
</g>
</svg>
