<?xml version="1.0" encoding="utf-8"?>
<!-- Generator: Adobe Illustrator 21.1.0, SVG Export Plug-In . SVG Version: 6.00 Build 0)  -->
<svg version="1.0" id="Capa_1" xmlns="http://www.w3.org/2000/svg" xmlns:xlink="http://www.w3.org/1999/xlink" x="0px" y="0px"
	 width="58px" height="58px" viewBox="0 0 58 58" enable-background="new 0 0 58 58" xml:space="preserve">
<path fill="#56A157" d="M49,0c0,2.8-2.2,5-5,5s-5-2.2-5-5H0v58h39c0-2.8,2.2-5,5-5s5,2.2,5,5h9V0H49z"/>
<polygon fill="#EBDA6C" points="0,0 0,8 8,0 "/>
<path fill="#EDDC6E" d="M43,10H15c-2.7,0-5,2.2-5,5v5.5c0,0.8,0.7,1.5,1.5,1.5l0,0c0.8,0,1.5,0.7,1.5,1.5v11c0,0.8-0.7,1.5-1.5,1.5
	l0,0c-0.8,0-1.5,0.7-1.5,1.5V43c0,2.7,2.2,5,5,5H43c2.7,0,5-2.2,5-5V15C48,12.2,45.8,10,43,10z"/>
<g>
	<circle fill="#EDDC6E" cx="3" cy="50" r="1"/>
	<circle fill="#EDDC6E" cx="3" cy="55" r="1"/>
	<circle fill="#EDDC6E" cx="55" cy="3" r="1"/>
	<circle fill="#EDDC6E" cx="55" cy="55" r="1"/>
	<circle fill="#EDDC6E" cx="5" cy="48" r="1"/>
	<circle fill="#EDDC6E" cx="53" cy="34" r="1"/>
	<circle fill="#EDDC6E" cx="55" cy="36" r="1"/>
	<circle fill="#EDDC6E" cx="53" cy="44" r="1"/>
	<circle fill="#EDDC6E" cx="55" cy="46" r="1"/>
	<circle fill="#EDDC6E" cx="53" cy="24" r="1"/>
	<circle fill="#EDDC6E" cx="55" cy="26" r="1"/>
	<circle fill="#EDDC6E" cx="3" cy="45" r="1"/>
	<circle fill="#EDDC6E" cx="5" cy="43" r="1"/>
	<circle fill="#EDDC6E" cx="3" cy="40" r="1"/>
	<circle fill="#EDDC6E" cx="5" cy="38" r="1"/>
	<circle fill="#EDDC6E" cx="3" cy="35" r="1"/>
	<circle fill="#EDDC6E" cx="5" cy="33" r="1"/>
	<circle fill="#EDDC6E" cx="3" cy="30" r="1"/>
	<circle fill="#EDDC6E" cx="5" cy="28" r="1"/>
	<circle fill="#EDDC6E" cx="3" cy="25" r="1"/>
	<circle fill="#EDDC6E" cx="5" cy="23" r="1"/>
	<circle fill="#EDDC6E" cx="3" cy="10" r="1"/>
	<circle fill="#EDDC6E" cx="16" cy="3" r="1"/>
	<circle fill="#EDDC6E" cx="12" cy="3" r="1"/>
	<circle fill="#EDDC6E" cx="3" cy="13" r="1"/>
	<circle fill="#EDDC6E" cx="36" cy="55" r="1"/>
	<circle fill="#EDDC6E" cx="34" cy="53" r="1"/>
	<circle fill="#EDDC6E" cx="31" cy="55" r="1"/>
	<circle fill="#EDDC6E" cx="29" cy="53" r="1"/>
	<circle fill="#EDDC6E" cx="26" cy="55" r="1"/>
	<circle fill="#EDDC6E" cx="24" cy="53" r="1"/>
	<circle fill="#EDDC6E" cx="21" cy="55" r="1"/>
	<circle fill="#EDDC6E" cx="19" cy="53" r="1"/>
	<circle fill="#EDDC6E" cx="16" cy="55" r="1"/>
	<circle fill="#EDDC6E" cx="14" cy="53" r="1"/>
	<circle fill="#EDDC6E" cx="11" cy="55" r="1"/>
	<circle fill="#EDDC6E" cx="9" cy="53" r="1"/>
</g>
<path fill="#414141" d="M41.7,45H16.3c-1.8,0-3.3-1.5-3.3-3.3V16.3c0-1.8,1.5-3.3,3.3-3.3h25.4c1.8,0,3.3,1.5,3.3,3.3v25.4
	C45,43.5,43.5,45,41.7,45z"/>
</svg>
