<svg xmlns="http://www.w3.org/2000/svg" width="36" height="36" viewBox="0 0 36 36">
  <title>Asset 2</title>
  <g id="Layer_2" data-name="Layer 2">
    <g id="Capa_1" data-name="Capa 1">
      <g>
        <path d="M32.28,32.62H3.81a.44.44,0,0,1-.44-.44V3.81a.44.44,0,0,1,.44-.44H32.19a.44.44,0,0,1,.44.44V0H.44A.44.44,0,0,0,0,.44V35.56A.44.44,0,0,0,.44,36H32.63V32.19A.44.44,0,0,1,32.28,32.62Z" fill="#444b66"/>
        <path d="M35.56,0h0A.44.44,0,0,1,36,.44V35.56a.44.44,0,0,1-.44.44h0a.44.44,0,0,0,.44-.44V.44A.44.44,0,0,0,35.56,0Z" fill="#3d435c"/>
        <path d="M36,35.56V.44A.44.44,0,0,0,35.56,0H32.63V36h2.94A.44.44,0,0,0,36,35.56Z" fill="#3d435c"/>
        <path d="M3.81,3.37a.44.44,0,0,0-.44.44V32.19a.44.44,0,0,0,.44.44H29.25V3.37Z" fill="#00b7a0"/>
        <path d="M32.19,3.37h0a.44.44,0,0,1,.44.44V32.19a.44.44,0,0,1-.35.43.44.44,0,0,0,.35-.43V3.81A.44.44,0,0,0,32.19,3.37Z" fill="#a8b5ba"/>
        <path d="M32.62,32.19V3.81a.44.44,0,0,0-.44-.44H29.25V32.63h3A.44.44,0,0,0,32.62,32.19Z" fill="#008978"/>
      </g>
    </g>
  </g>
</svg>
