<?xml version="1.0" encoding="utf-8"?>
<!-- Generator: Adobe Illustrator 21.1.0, SVG Export Plug-In . SVG Version: 6.00 Build 0)  -->
<svg version="1.0" id="Layer_1" xmlns="http://www.w3.org/2000/svg" xmlns:xlink="http://www.w3.org/1999/xlink" x="0px" y="0px"
	 width="150px" height="110px" viewBox="0 0 150 110" enable-background="new 0 0 150 110" xml:space="preserve">
<path d="M78.9,90.2c-12.5,0-25,0-37.5,0c-5.6,0-8.1-2.5-8.1-8.1c0-6.8,0.1-13.5,0-20.2c-0.1-4.2,2.7-7.9,7.9-7.8
	c25.2,0.1,50.5,0.1,75.7,0.1c5,0,7.7,2.6,7.7,7.7c0,6.9,0,13.9,0,20.8c0,4.9-2.6,7.6-7.6,7.6C104.3,90.2,91.6,90.2,78.9,90.2z
	 M71.2,72.7c0-1.3,0.1-2.5,0-3.8c-0.3-4.9-4-8.5-8.7-8.4c-4.7,0-8.6,3.8-8.8,8.6c-0.1,2.5-0.1,4.9,0,7.4c0.2,4.6,3.7,8.2,8,8.7
	c4.2,0.4,8.1-2.4,9.2-6.8C71.5,76.5,71.2,74.6,71.2,72.7z M78.5,72.8c0,0-0.1,0-0.1,0c0-1.1-0.1-2.3,0-3.4c0.1-1.7,0.8-3,2.6-3.6
	c1.7-0.5,2.9,0.2,4,1.4c1.5,1.8,2.8,2.1,4.1,1c1.3-1.1,1.3-2.6-0.1-4.3c-2.4-2.9-5.5-4.1-9.1-3.2c-3.7,1-5.9,3.5-6.5,7.3
	c-0.5,3.3-0.4,6.5,0,9.8c0.6,4.8,5.6,8.2,10.3,7.1c6.3-1.4,7.7-6.7,7-11.8c-0.1-1.1-1.1-1.9-2.2-2c-1-0.1-2-0.1-3,0
	c-1.3,0.1-2.1,0.8-2.4,2.1c-0.2,1.2,0.3,2.3,1.5,2.7c1.3,0.4,1.1,1.2,0.6,2c-0.9,1.5-2.2,2.1-3.8,1.8c-1.6-0.3-2.6-1.4-2.8-2.9
	C78.4,75.6,78.5,74.2,78.5,72.8z M102.2,72.8c0.1,1.9-0.2,3.9,0.4,5.8c1.1,3.6,3.6,5.7,7.2,6.4c3.1,0.6,6.8-1.1,8.5-3.8
	c0.7-1.1,1-2.2,0.3-3.4c-0.7-1.1-1.7-1.2-2.8-1.1c-1,0.2-1.4,1-1.9,1.7c-1.1,1.3-2.5,1.7-4.1,1.1c-1.5-0.6-2.3-1.7-2.3-3.4
	c0-2.2,0-4.4,0-6.6c0-1.8,0.6-3.2,2.3-3.7c1.7-0.6,3.2-0.1,4.3,1.4c1.3,1.7,2.7,2,4,1c1.2-1,1.2-2.6,0-4.2c-2.2-2.9-5.2-4.1-8.6-3.5
	c-3.5,0.6-5.8,2.9-6.8,6.3C102,68.9,102.3,70.9,102.2,72.8z M38.9,72.5c0,3.2,0,6.3,0,9.5c0,1.6,0.6,2.8,2.3,2.9
	c3.4,0.1,6.8,0.1,10.2,0c1.5-0.1,2.4-1.1,2.3-2.7c-0.1-1.6-1-2.4-2.6-2.4c-1.7,0-3.4-0.1-5.1,0c-1.5,0.1-1.9-0.4-1.9-1.9
	c0.1-4.9,0.1-9.7,0-14.6c0-2-1.2-3.2-2.8-3.2c-1.5,0.1-2.4,1.2-2.5,3.2C38.9,66.5,38.9,69.5,38.9,72.5z M98.8,75.3
	c0-2.4,0-4.8,0-7.2c0-1.7-1.1-3-2.6-2.9c-1.6,0.1-2.5,1.1-2.5,2.8c0,4.8,0,9.6,0,14.4c0,1.7,0.8,2.6,2.5,2.8c1.5,0.1,2.6-1,2.6-2.8
	C98.9,80,98.8,77.7,98.8,75.3z M98.8,62.1c0-1.8-1.2-3.1-2.6-2.9c-1.5,0.2-2.4,1-2.4,2.6c0,1.5,1.2,2.7,2.6,2.6
	C97.9,64.2,98.8,63.3,98.8,62.1z"/>
<path d="M79.4,34.6c0-3.5,0-6.9,0-10.4c0-2.7,1.1-3.8,3.8-3.7c2.2,0,4.4-0.2,6.6,0.2c5.1,0.9,8.6,5,8.6,10.2c0,2.5,0,5,0,7.6
	c0,5.5-4.2,10-9.7,10.3c-2,0.1-4,0.1-6.1,0c-2.1-0.1-3.2-1.2-3.2-3.4C79.4,41.8,79.4,38.2,79.4,34.6z M85.3,34.6c0,2.3,0,4.5,0,6.8
	c0,0.5-0.2,1,0.4,1.3c2.7,1.2,6.5-1,6.6-3.9c0.1-2.8,0.1-5.5,0-8.3c0-2.2-1.5-3.8-3.8-4c-0.7-0.1-1.4,0-2.1,0
	c-1-0.1-1.3,0.4-1.3,1.3C85.4,30.1,85.3,32.4,85.3,34.6z"/>
<path d="M43.4,39.3c0,2.2,0.1,4.3,0,6.3c-0.1,2.5-2.2,3.9-4.3,2.9c-1.1-0.5-1.7-1.5-1.7-2.7c0-7.4,0-14.8,0-22.1
	c0-1.7,1.2-2.9,2.8-3c1.6-0.1,3,1.1,3.1,2.9c0.1,2.1,0,4.3,0,6.4c0.8,0.2,1-0.4,1.3-0.7c2.5-2.4,4.9-4.9,7.4-7.4
	c1.5-1.5,3.2-1.6,4.5-0.3c1.3,1.3,1.3,2.9-0.3,4.5c-2.6,2.6-5.1,5.2-7.8,7.7c-0.8,0.7-0.8,1.1,0,1.9c2.6,2.5,5.1,5.1,7.6,7.6
	c1.7,1.7,1.8,3.3,0.5,4.6c-1.3,1.4-3.1,1.2-4.8-0.4C49.1,44.8,46.3,42.1,43.4,39.3z"/>
<path d="M108.3,42.8c1.3,0,2.5,0.1,3.8,0c1.5-0.1,2.5-0.9,2.6-2.4c0.1-1.5-0.8-2.4-2.2-2.6c-1.2-0.2-2.4-0.1-3.6-0.2
	c-4.5-0.3-8-3.7-8.2-7.8c-0.2-4.5,2.8-8.4,7.3-9.1c3-0.4,6-0.2,9.1-0.1c1.7,0,2.9,1.6,2.9,3.2c-0.1,1.6-1.3,2.8-3.2,2.8
	c-2.3,0-4.7,0-7,0c-2,0-3.2,1-3.1,2.7c0,1.6,1.1,2.5,3.1,2.5c1.5,0.1,3-0.1,4.5,0.3c4.2,1.2,6.7,5,6.2,9.4c-0.5,4.1-3.9,7.2-8.5,7.4
	c-2.5,0.1-5,0.1-7.6,0c-2-0.1-3.2-1.3-3.2-3c0-1.7,1.3-2.9,3.2-3C105.8,42.8,107,42.8,108.3,42.8z"/>
<g>
	<path d="M68.1,48.3c-2.4,0-4.8,0-7.2,0c-1.5,0-2.7-0.5-2.7-2.2c0-1.7,1.3-2.1,2.8-2.1c4.7,0,9.4,0,14.1,0c1.5,0,2.7,0.6,2.7,2.2
		c0,1.5-1.2,2.1-2.6,2.1C72.9,48.3,70.5,48.3,68.1,48.3z"/>
	<path d="M67.9,37.9c1.5,0,3,0,4.5,0c1.4,0.1,2.4,0.8,2.4,2.2c0,1.4-1,2.1-2.4,2.2c-3,0-5.9,0.1-8.9,0c-1.3,0-2.3-0.8-2.3-2.2
		c0.1-1.4,1-2,2.3-2.1C65,37.8,66.5,37.9,67.9,37.9z"/>
	<path d="M68,36.3c-0.9-0.1-1.8,0-2.6-0.2c-1.1-0.2-1.8-0.9-1.8-2.1c0-1.1,0.6-1.9,1.6-2c1.9-0.3,3.9-0.3,5.8,0c1,0.2,1.7,1,1.6,2
		c0,1.1-0.7,1.9-1.8,2.1C69.9,36.2,68.9,36.2,68,36.3z"/>
	<path d="M68.4,25.8c0.8,0,1.8,0,2.5,0.7c0.4,0.4,0.6,0.9,0.6,1.5c0,1.5-1.2,2.2-3.6,2.1c-2.2,0-3.3-0.7-3.2-2.3
		c0.1-1.8,1.4-2.1,2.9-2.1C67.9,25.8,68.1,25.8,68.4,25.8z"/>
	<path d="M68.2,24.1C66.9,24,66,23.3,66,22c0-1.3,0.8-2.1,2.1-2.2c1.3,0,2.1,0.8,2.2,2.1C70.3,23.2,69.4,23.9,68.2,24.1z"/>
</g>
<path d="M59,72.8c0-1.3,0-2.5,0-3.8c0.1-1.9,1.3-3.2,3.2-3.4c1.6-0.2,3.4,0.8,3.7,2.5c0.6,3,0.6,6.1,0,9.2c-0.3,1.9-2,2.8-3.8,2.6
	c-1.7-0.2-3-1.6-3.1-3.5C59,75.2,59,74,59,72.8z"/>
</svg>
