<?xml version="1.0" encoding="utf-8"?>
<!-- Generator: Adobe Illustrator 21.1.0, SVG Export Plug-In . SVG Version: 6.00 Build 0)  -->
<svg version="1.0" id="Layer_1" xmlns="http://www.w3.org/2000/svg" xmlns:xlink="http://www.w3.org/1999/xlink" x="0px" y="0px"
	 width="640px" height="480px" viewBox="0 0 640 480" enable-background="new 0 0 640 480" xml:space="preserve">
<g id="XMLID_2974_">
	<path id="XMLID_94_" fill="#2B2F3F" d="M464,185.7v106.5H274V185.7c0-4.3,3.5-7.8,7.8-7.8h174.3C460.5,177.9,464,181.4,464,185.7z"
		/>
	<rect id="XMLID_66_" x="282.3" y="186.9" fill="#1D6C93" width="173.3" height="105.4"/>
	<polygon id="XMLID_67_" fill="#FFFFFF" points="393.8,330 344.1,330 349.6,311.7 388.9,311.7 	"/>
	<polygon id="XMLID_64_" fill="#CECECE" points="349.6,311.7 347.8,317.6 390.5,317.6 388.9,311.7 	"/>
	<path id="XMLID_65_" fill="#CECECE" d="M400.6,339.1h-63.2c-2.5,0-4.6-2-4.6-4.6l0,0c0-2.5,2-4.6,4.6-4.6h63.2c2.5,0,4.6,2,4.6,4.6
		l0,0C405.2,337.1,403.1,339.1,400.6,339.1z"/>
	<g>
		<path fill="#A2A9BC" d="M274,303.9c0,4.3,3.5,7.8,7.8,7.8h174.3c4.3,0,7.8-3.5,7.8-7.8V300H274V303.9z"/>
		<polygon fill="#2B2F3F" points="464,292 274,292 274,300 274,300 464,300 464,300 		"/>
	</g>
	<polygon id="XMLID_2360_" fill="#4A89A9" points="455.6,186.9 455.6,221.9 385.4,292 282.3,292 282.3,280.5 376.2,186.9 	"/>
	<polygon id="XMLID_442_" fill="#4A89A9" points="352.4,186.9 282.3,256.8 282.3,215 310.5,186.9 	"/>
</g>
<g id="XMLID_2_">
	<path id="XMLID_68_" fill="#464F60" d="M258.9,339.1h-74.4c-4.1,0-7.4-3.3-7.4-7.4V148.5c0-4.1,3.3-7.4,7.4-7.4h74.4
		c4.1,0,7.4,3.3,7.4,7.4v183.2C266.3,335.8,263,339.1,258.9,339.1z"/>
	<path id="XMLID_410_" fill="#A2A9BC" d="M266.3,302.8v28.9c0,4.1-3.3,7.4-7.4,7.4h-74.4c-4.1,0-7.4-3.3-7.4-7.4v-28.9
		c0,9.1,7.4,16.5,16.5,16.5h56.3C259,319.3,266.3,311.9,266.3,302.8z"/>
	<path id="XMLID_69_" fill="#343847" d="M257.7,190.2h-70.9c-2.6,0-4.7-2.1-4.7-4.7v-20.7c0-2.6,2.1-4.7,4.7-4.7h70.9
		c2.6,0,4.7,2.1,4.7,4.7v20.7C262.4,188.1,260.3,190.2,257.7,190.2z"/>
	<path id="XMLID_70_" fill="#464F60" d="M255.4,176.3h-67c-1.7,0-3.1-1.4-3.1-3.1v-2.7c0-1.7,1.4-3.1,3.1-3.1h67
		c1.7,0,3.1,1.4,3.1,3.1v2.7C258.6,174.9,257.2,176.3,255.4,176.3z"/>
	<path id="XMLID_71_" fill="#CECECE" d="M197.4,173.5h-7.2c-1.1,0-1.9-0.9-1.9-1.9l0,0c0-1.1,0.9-1.9,1.9-1.9h7.2
		c1.1,0,1.9,0.9,1.9,1.9l0,0C199.3,172.6,198.4,173.5,197.4,173.5z"/>
	<circle id="XMLID_97_" fill="#4098CD" cx="241.8" cy="171.7" r="2.4"/>
	<circle id="XMLID_363_" fill="#4098CD" cx="251" cy="171.7" r="2.4"/>
	<path id="XMLID_100_" fill="#FFFFFF" d="M257.4,151.5h-20.2c-1.4,0-2.4-1.1-2.4-2.4l0,0c0-1.4,1.1-2.4,2.4-2.4h20.2
		c1.4,0,2.4,1.1,2.4,2.4l0,0C259.8,150.4,258.7,151.5,257.4,151.5z"/>
	<path id="XMLID_365_" fill="#343847" d="M258.8,240.1h-74.3c-1.8,0-3.3-1.5-3.3-3.3v-6.3c0-1.8,1.5-3.3,3.3-3.3h74.3
		c1.8,0,3.3,1.5,3.3,3.3v6.3C262.1,238.6,260.6,240.1,258.8,240.1z"/>
	<path id="XMLID_366_" fill="#FFFFFF" d="M254.5,236h-8.8c-0.3,0-0.6-0.2-0.6-0.6v-3.9c0-0.3,0.2-0.6,0.6-0.6h8.8
		c0.3,0,0.6,0.2,0.6,0.6v3.9C255,235.7,254.8,236,254.5,236z"/>
	<path id="XMLID_367_" fill="#343847" d="M253.7,233.2h-7.3c-0.3,0-0.5-0.2-0.5-0.5v-0.6c0-0.3,0.2-0.5,0.5-0.5h7.3
		c0.3,0,0.5,0.2,0.5,0.5v0.6C254.2,233,254,233.2,253.7,233.2z"/>
	<path id="XMLID_370_" fill="#FFFFFF" d="M242,236h-8.8c-0.3,0-0.6-0.2-0.6-0.6v-3.9c0-0.3,0.2-0.6,0.6-0.6h8.8
		c0.3,0,0.6,0.2,0.6,0.6v3.9C242.6,235.7,242.3,236,242,236z"/>
	<path id="XMLID_369_" fill="#343847" d="M241.3,233.2H234c-0.3,0-0.5-0.2-0.5-0.5v-0.6c0-0.3,0.2-0.5,0.5-0.5h7.3
		c0.3,0,0.5,0.2,0.5,0.5v0.6C241.8,233,241.6,233.2,241.3,233.2z"/>
	<g id="XMLID_368_">
		<path id="XMLID_1685_" fill="#FF5E4C" d="M220.6,236c-1.3,0-2.4-1.1-2.4-2.4c0-1.3,1.1-2.4,2.4-2.4c1.3,0,2.4,1.1,2.4,2.4
			C223,234.9,221.9,236,220.6,236z M220.6,232c-0.9,0-1.6,0.7-1.6,1.6c0,0.9,0.7,1.6,1.6,1.6c0.9,0,1.6-0.7,1.6-1.6
			C222.2,232.7,221.5,232,220.6,232z"/>
	</g>
	<g id="XMLID_372_">
		<path id="XMLID_1496_" fill="#46C596" d="M227.2,236c-1.3,0-2.4-1.1-2.4-2.4c0-1.3,1.1-2.4,2.4-2.4c1.3,0,2.4,1.1,2.4,2.4
			C229.6,234.9,228.5,236,227.2,236z M227.2,232c-0.9,0-1.6,0.7-1.6,1.6c0,0.9,0.7,1.6,1.6,1.6c0.9,0,1.6-0.7,1.6-1.6
			C228.8,232.7,228.1,232,227.2,232z"/>
	</g>
	<path id="XMLID_371_" fill="#FFFFFF" d="M218.4,314.6h-4.1c-1.1,0-1.9-0.9-1.9-1.9l0,0c0-1.1,0.9-1.9,1.9-1.9h4.1
		c1.1,0,1.9,0.9,1.9,1.9l0,0C220.3,313.7,219.4,314.6,218.4,314.6z"/>
	<path id="XMLID_374_" fill="#FFFFFF" d="M229.1,314.6H225c-1.1,0-1.9-0.9-1.9-1.9l0,0c0-1.1,0.9-1.9,1.9-1.9h4.1
		c1.1,0,1.9,0.9,1.9,1.9l0,0C231.1,313.7,230.2,314.6,229.1,314.6z"/>
	<circle id="XMLID_373_" fill="#343847" cx="222.2" cy="270.2" r="13.5"/>
	<circle id="XMLID_375_" fill="#FFFFFF" cx="222.2" cy="270.2" r="8.9"/>
	<g id="XMLID_378_">
		<g id="XMLID_377_">
			<path id="XMLID_380_" fill="#343847" d="M222.2,276.1c-3,0-5.5-2.5-5.5-5.5c0-1.6,0.7-3.1,1.9-4.1c0.4-0.4,1.1-0.3,1.5,0.1
				c0.4,0.4,0.3,1.1-0.1,1.5c-0.7,0.7-1.2,1.6-1.2,2.6c0,1.9,1.5,3.4,3.4,3.4c1.9,0,3.4-1.5,3.4-3.4c0-1-0.4-1.9-1.2-2.6
				c-0.4-0.4-0.5-1-0.1-1.5c0.4-0.4,1-0.5,1.5-0.1c1.2,1,1.9,2.5,1.9,4.1C227.7,273.6,225.2,276.1,222.2,276.1z"/>
		</g>
		<g id="XMLID_376_">
			<path id="XMLID_401_" fill="#343847" d="M222.2,270L222.2,270c-0.6,0-1-0.5-1-1v-3.6c0-0.6,0.5-1,1-1l0,0c0.6,0,1,0.5,1,1v3.6
				C223.2,269.6,222.7,270,222.2,270z"/>
		</g>
	</g>
</g>
</svg>
