<?xml version="1.0" encoding="utf-8"?>
<!-- Generator: Adobe Illustrator 21.1.0, SVG Export Plug-In . SVG Version: 6.00 Build 0)  -->
<svg version="1.0" id="Flat" xmlns="http://www.w3.org/2000/svg" xmlns:xlink="http://www.w3.org/1999/xlink" x="0px" y="0px"
	 width="512px" height="512px" viewBox="0 0 512 512" enable-background="new 0 0 512 512" xml:space="preserve">
<g>
	<path fill="#CFD2FC" d="M344,24H120c-26.5,0-48,21.5-48,48v288h368V120L344,24z"/>
	<path fill="#5153FF" d="M286.2,441.1c2.8,0,4.7-1.2,5.9-3.5v-13.3c-1.1-2.3-3.1-3.5-5.8-3.5c-4.3,0.1-6.5,3.6-6.5,10.6
		c0,3.1,0.5,5.6,1.6,7.2C282.5,440.3,284.1,441.1,286.2,441.1z"/>
	<path fill="#5153FF" d="M334.9,427.1c0-2-0.6-3.5-1.6-4.6c-1.1-1.1-2.6-1.7-4.5-1.7c-1.8,0-3.2,0.6-4.3,1.8s-1.8,2.9-2.1,5.2h12.5
		V427.1z"/>
	<path fill="#5153FF" d="M72,440c0,26.5,21.5,48,48,48h272c26.5,0,48-21.5,48-48v-80H72V440z M355.1,414.2h8.5l0.2,4
		c1.8-3.1,4.3-4.6,7.5-4.6c1,0,1.9,0.1,2.8,0.4l-0.1,8.6c-1.2-0.2-2.3-0.2-3.2-0.2c-3.4,0-5.6,1.1-6.7,3.4v22h-9V414.2z
		 M313.2,430.9c0-3.4,0.7-6.4,2-9c1.3-2.7,3.2-4.7,5.5-6.1c2.4-1.4,5.1-2.2,8.2-2.2c4.6,0,8.2,1.4,10.8,4.3c2.6,2.9,4,7,4,12.3v3.7
		h-21.4c0.3,2.2,1.2,4,2.6,5.3c1.5,1.3,3.3,2,5.5,2c3.5,0,6.2-1.3,8.1-3.8l4.4,4.9c-1.3,1.9-3.2,3.4-5.5,4.5
		c-2.2,1.1-4.8,1.6-7.6,1.6c-4.9,0-8.9-1.5-12-4.5c-3.1-3-4.6-7-4.6-12.1V430.9z M274.3,418.2c2.3-3.1,5.6-4.7,9.6-4.7
		c3.3,0,6,1.2,8.1,3.7v-17.1h9v47.7h-8l-0.4-3.6c-2.2,2.8-5.1,4.2-8.6,4.2c-4,0-7.1-1.6-9.5-4.7c-2.5-3.1-3.7-7.4-3.7-13
		C270.8,425.5,272,421.3,274.3,418.2z M248.7,421.6c-0.8-0.9-2.1-1.4-3.8-1.4c-1.5,0-2.7,0.4-3.6,1.1c-0.9,0.7-1.3,1.7-1.3,3h-9
		c0-1.9,0.6-3.7,1.8-5.4c1.2-1.7,2.9-3,5.1-3.9c2.2-0.9,4.7-1.4,7.4-1.4c4.1,0,7.4,1,9.9,3.1c2.4,2.1,3.6,5,3.6,8.8V440
		c0,3.2,0.5,5.6,1.3,7.2v0.5h-8.9v0.1c-0.4-0.8-0.7-1.8-0.9-3c-2.2,2.4-5,3.6-8.5,3.6c-3.3,0-6-1-8.2-2.9c-2.2-1.9-3.2-4.3-3.2-7.2
		c0-3.6,1.3-6.3,4-8.2s6.4-2.9,11.4-2.9h4.1v-1.9C249.9,423.7,249.5,422.5,248.7,421.6z M189.7,400h9v17.8c2.4-2.8,5.3-4.2,8.9-4.2
		c7.3,0,11,4.2,11.1,12.7v21.5h-9v-21.3c0-1.9-0.4-3.3-1.2-4.3c-0.8-0.9-2.2-1.4-4.1-1.4c-2.6,0-4.5,1-5.7,3v23.9h-9V400z
		 M166.6,431.9c-1.3-0.9-3.5-1.9-6.7-3c-3.2-1-5.8-2.1-7.7-3.1c-5.1-2.8-7.7-6.5-7.7-11.2c0-2.4,0.7-4.6,2.1-6.5
		c1.4-1.9,3.4-3.4,5.9-4.5c2.6-1.1,5.5-1.6,8.7-1.6s6.1,0.6,8.6,1.8c2.5,1.2,4.5,2.8,5.9,5c1.4,2.2,2.1,4.6,2.1,7.3h-9.3
		c0-2.1-0.7-3.7-2-4.8c-1.3-1.1-3.1-1.7-5.5-1.7c-2.3,0-4,0.5-5.3,1.4c-1.3,1-1.9,2.2-1.9,3.8c0,1.5,0.7,2.7,2.2,3.7
		s3.7,1.9,6.5,2.8c5.3,1.6,9.2,3.6,11.6,5.9c2.4,2.4,3.6,5.3,3.6,8.8c0,3.9-1.5,7-4.4,9.2c-3,2.2-6.9,3.3-11.9,3.3
		c-3.5,0-6.6-0.6-9.5-1.9c-2.9-1.3-5-3-6.5-5.2s-2.3-4.8-2.3-7.7h9.3c0,5,3,7.5,8.9,7.5c2.2,0,3.9-0.5,5.2-1.3c1.3-1.1,2-2.4,2-4
		C168.5,434.1,167.9,432.8,166.6,431.9z"/>
	<path fill="#5153FF" d="M239.4,437.1v0.5c0,1.1,0.4,2,1.2,2.8c0.8,0.8,1.9,1.1,3.2,1.1c1.3,0,2.5-0.3,3.7-0.9
		c1.2-0.6,1.9-1.4,2.5-2.4v-5.8h-3.4C242.1,432.4,239.7,434,239.4,437.1z"/>
	<path fill="#FFFFFF" d="M166.5,439.9c-1.3,0.8-3,1.3-5.2,1.3c-5.9,0-8.9-2.5-8.9-7.5h-9.3c0,2.9,0.8,5.5,2.3,7.7s3.6,3.9,6.5,5.2
		c2.9,1.3,6,1.9,9.5,1.9c5,0,8.9-1.1,11.9-3.3c2.9-2.2,4.4-5.3,4.4-9.2c0-3.5-1.2-6.4-3.6-8.8c-2.4-2.3-6.3-4.3-11.6-5.9
		c-2.8-0.9-5-1.8-6.5-2.8s-2.2-2.2-2.2-3.7c0-1.6,0.6-2.8,1.9-3.8c1.3-0.9,3-1.4,5.3-1.4c2.4,0,4.2,0.6,5.5,1.7c1.3,1.1,2,2.7,2,4.8
		h9.3c0-2.7-0.7-5.1-2.1-7.3c-1.4-2.2-3.4-3.8-5.9-5c-2.5-1.2-5.4-1.8-8.6-1.8s-6.1,0.5-8.7,1.6c-2.5,1.1-4.5,2.6-5.9,4.5
		c-1.4,1.9-2.1,4.1-2.1,6.5c0,4.7,2.6,8.4,7.7,11.2c1.9,1,4.5,2.1,7.7,3.1c3.2,1.1,5.4,2.1,6.7,3c1.3,0.9,1.9,2.2,1.9,4
		C168.5,437.5,167.8,438.8,166.5,439.9z"/>
	<path fill="#FFFFFF" d="M198.7,423.8c1.2-2,3.1-3,5.7-3c1.9,0,3.3,0.5,4.1,1.4c0.8,1,1.2,2.4,1.2,4.3v21.3h9v-21.5
		c-0.1-8.5-3.8-12.7-11.1-12.7c-3.6,0-6.5,1.4-8.9,4.2V400h-9v47.7h9V423.8z"/>
	<path fill="#FFFFFF" d="M245.8,427.2c-5,0-8.7,1-11.4,2.9s-4,4.6-4,8.2c0,2.9,1,5.3,3.2,7.2c2.2,1.9,4.9,2.9,8.2,2.9
		c3.5,0,6.3-1.2,8.5-3.6c0.2,1.2,0.5,2.2,0.9,3v-0.1h8.9v-0.5c-0.8-1.6-1.3-4-1.3-7.2v-14.5c0-3.8-1.2-6.7-3.6-8.8
		c-2.5-2.1-5.8-3.1-9.9-3.1c-2.7,0-5.2,0.5-7.4,1.4c-2.2,0.9-3.9,2.2-5.1,3.9c-1.2,1.7-1.8,3.5-1.8,5.4h9c0-1.3,0.4-2.3,1.3-3
		c0.9-0.7,2.1-1.1,3.6-1.1c1.7,0,3,0.5,3.8,1.4s1.2,2.1,1.2,3.7v1.9H245.8z M250,432.4v5.8c-0.6,1-1.3,1.8-2.5,2.4
		c-1.2,0.6-2.4,0.9-3.7,0.9c-1.3,0-2.4-0.3-3.2-1.1c-0.8-0.8-1.2-1.7-1.2-2.8v-0.5c0.3-3.1,2.7-4.7,7.2-4.7H250z"/>
	<path fill="#FFFFFF" d="M284,448.4c3.5,0,6.4-1.4,8.6-4.2l0.4,3.6h8v-47.7h-9v17.1c-2.1-2.5-4.8-3.7-8.1-3.7c-4,0-7.3,1.6-9.6,4.7
		c-2.3,3.1-3.5,7.3-3.5,12.5c0,5.6,1.2,9.9,3.7,13C276.9,446.8,280,448.4,284,448.4z M286.3,420.8c2.7,0,4.7,1.2,5.8,3.5v13.3
		c-1.2,2.3-3.1,3.5-5.9,3.5c-2.1,0-3.7-0.8-4.8-2.5c-1.1-1.6-1.6-4.1-1.6-7.2C279.8,424.4,282,420.9,286.3,420.8z"/>
	<path fill="#FFFFFF" d="M329.8,448.4c2.8,0,5.4-0.5,7.6-1.6c2.3-1.1,4.2-2.6,5.5-4.5l-4.4-4.9c-1.9,2.5-4.6,3.8-8.1,3.8
		c-2.2,0-4-0.7-5.5-2c-1.4-1.3-2.3-3.1-2.6-5.3h21.4v-3.7c0-5.3-1.4-9.4-4-12.3c-2.6-2.9-6.2-4.3-10.8-4.3c-3.1,0-5.8,0.8-8.2,2.2
		c-2.3,1.4-4.2,3.4-5.5,6.1c-1.3,2.6-2,5.6-2,9v0.9c0,5.1,1.5,9.1,4.6,12.1C320.9,446.9,324.9,448.4,329.8,448.4z M324.5,422.6
		c1.1-1.2,2.5-1.8,4.3-1.8c1.9,0,3.4,0.6,4.5,1.7c1,1.1,1.6,2.6,1.6,4.6v0.7h-12.5C322.7,425.5,323.4,423.8,324.5,422.6z"/>
	<path fill="#FFFFFF" d="M364.1,425.8c1.1-2.3,3.3-3.4,6.7-3.4c0.9,0,2,0,3.2,0.2l0.1-8.6c-0.9-0.3-1.8-0.4-2.8-0.4
		c-3.2,0-5.7,1.5-7.5,4.6l-0.2-4h-8.5v33.6h9V425.8z"/>
</g>
<path fill="#8690FA" d="M440,120h-48c-26.5,0-48-21.5-48-48V24L440,120z"/>
<path fill="#5153FF" d="M240,144c-4.4,0-8-3.6-8-8v-16c0-4.4,3.6-8,8-8s8,3.6,8,8v16C248,140.4,244.4,144,240,144z"/>
<g>
	<path fill="#8690FA" d="M208,176c-4.4,0-8-3.6-8-8v-48c0-4.4,3.6-8,8-8s8,3.6,8,8v48C216,172.4,212.4,176,208,176z"/>
	<path fill="#8690FA" d="M176,304c-4.4,0-8-3.6-8-8v-48c0-4.4,3.6-8,8-8s8,3.6,8,8v48C184,300.4,180.4,304,176,304z"/>
	<path fill="#8690FA" d="M336,304c-4.4,0-8-3.6-8-8v-80c0-4.4,3.6-8,8-8s8,3.6,8,8v80C344,300.4,340.4,304,336,304z"/>
</g>
<path fill="#5153FF" d="M176,192c-4.4,0-8-3.6-8-8v-16c0-4.4,3.6-8,8-8s8,3.6,8,8v16C184,188.4,180.4,192,176,192z"/>
<path fill="#5153FF" d="M208,272c-4.4,0-8-3.6-8-8v-16c0-4.4,3.6-8,8-8s8,3.6,8,8v16C216,268.4,212.4,272,208,272z"/>
<circle fill="#FFFFFF" cx="208" cy="296" r="8"/>
<circle fill="#FFFFFF" cx="176" cy="216" r="8"/>
<circle fill="#FFFFFF" cx="240" cy="168" r="8"/>
<path fill="#8690FA" d="M240,256c-4.4,0-8-3.6-8-8v-48c0-4.4,3.6-8,8-8s8,3.6,8,8v48C248,252.4,244.4,256,240,256z"/>
<path fill="#5153FF" d="M208,224c-4.4,0-8-3.6-8-8v-16c0-4.4,3.6-8,8-8s8,3.6,8,8v16C216,220.4,212.4,224,208,224z"/>
<circle fill="#FFFFFF" cx="336" cy="184" r="8"/>
<path fill="#8690FA" d="M272,304c-4.4,0-8-3.6-8-8v-48c0-4.4,3.6-8,8-8s8,3.6,8,8v48C280,300.4,276.4,304,272,304z"/>
<path fill="#5153FF" d="M272,176c-4.4,0-8-3.6-8-8v-16c0-4.4,3.6-8,8-8s8,3.6,8,8v16C280,172.4,276.4,176,272,176z"/>
<circle fill="#FFFFFF" cx="272" cy="120" r="8"/>
<path fill="#5153FF" d="M272,224c-4.4,0-8-3.6-8-8v-16c0-4.4,3.6-8,8-8s8,3.6,8,8v16C280,220.4,276.4,224,272,224z"/>
<path fill="#5153FF" d="M176,144c-4.4,0-8-3.6-8-8v-16c0-4.4,3.6-8,8-8s8,3.6,8,8v16C184,140.4,180.4,144,176,144z"/>
<path fill="#8690FA" d="M304,208c-4.4,0-8-3.6-8-8v-80c0-4.4,3.6-8,8-8s8,3.6,8,8v80C312,204.4,308.4,208,304,208z"/>
<circle fill="#FFFFFF" cx="304" cy="232" r="8"/>
<path fill="#8690FA" d="M304,304c-4.4,0-8-3.6-8-8v-32c0-4.4,3.6-8,8-8s8,3.6,8,8v32C312,300.4,308.4,304,304,304z"/>
<path fill="#5153FF" d="M240,304c-4.4,0-8-3.6-8-8v-16c0-4.4,3.6-8,8-8s8,3.6,8,8v16C248,300.4,244.4,304,240,304z"/>
<path fill="#5153FF" d="M336,160c-4.4,0-8-3.6-8-8v-16c0-4.4,3.6-8,8-8s8,3.6,8,8v16C344,156.4,340.4,160,336,160z"/>
</svg>
